/* XPM */
static char *_acc52209bf941af92e9dac5d66d766fBswBmJRYLovSCarf[] = {
/* columns rows colors chars-per-pixel */
"16 16 5 1 ",
"  c None",
". c #181425",
"X c #5A6988",
"o c #8B9BB4",
"O c #C0CBDC",
/* pixels */
"    ...         ",
"   .OOO.        ",
"  .OOOOO.       ",
" .oOOOOOo.      ",
" .oOOOOOO.      ",
" .ooOOOOO.      ",
" .oooOOOOo.     ",
".oooooOO.....   ",
".Xooooo.oOOOo.  ",
".Xoooo.oOOOOOO. ",
".XXooo.oooOOOOo.",
".XXXXo.Xooooooo.",
".XXXXX.XXXooooX.",
" .XXXXX.XXXXX.. ",
"  ...........   ",
"                "
};
