/* XPM */
static char *result[] = {
/* columns rows colors chars-per-pixel */
"62 62 120 2 ",
"   c #0B182B",
".  c #111E2D",
"X  c #15222E",
"o  c #1A262E",
"O  c #1E292E",
"+  c #122338",
"@  c #232D2E",
"#  c #2C342F",
"$  c #343A2F",
"%  c #393F2F",
"&  c #3D412F",
"*  c #434630",
"=  c #474930",
"-  c #4B4D30",
";  c #4F5030",
":  c #545331",
">  c #595731",
",  c #5D5A31",
"<  c #615E31",
"1  c #666232",
"2  c #6A6632",
"3  c #172941",
"4  c #182C46",
"5  c #1B314D",
"6  c #1D3652",
"7  c #1F3855",
"8  c #24384F",
"9  c #233A54",
"0  c #283D55",
"q  c #2C4255",
"w  c #2C425B",
"e  c #314654",
"r  c #364953",
"t  c #3B4C53",
"y  c #30455F",
"u  c #334965",
"i  c #39516E",
"p  c #3C5573",
"a  c #535E4F",
"s  c #445351",
"d  c #4A5751",
"f  c #4D5A50",
"g  c #505C50",
"h  c #56614F",
"j  c #5A634F",
"k  c #646B4D",
"l  c #696E4D",
"z  c #6D714C",
"x  c #425F7C",
"c  c #4A697E",
"v  c #E7B819",
"b  c #EABC1D",
"n  c #F2B82E",
"m  c #FFC915",
"M  c #8D997E",
"N  c #939D7B",
"B  c #989F78",
"V  c #9AA177",
"C  c #FFD747",
"Z  c #FFD648",
"A  c #FFDA56",
"S  c #FFDC5F",
"D  c #FFE174",
"F  c #1E4E8F",
"G  c #164892",
"H  c #1A4A91",
"J  c #214F8E",
"K  c #26528C",
"L  c #2C568A",
"P  c #355C86",
"I  c #3A5E85",
"U  c #305988",
"Y  c #3D6183",
"T  c #466381",
"R  c #4C6A8A",
"E  c #51708F",
"W  c #506F90",
"Q  c #557395",
"!  c #5A7996",
"~  c #577798",
"^  c #587798",
"/  c #5C7C9C",
"(  c #607F9A",
")  c #748B8E",
"_  c #7A8E8A",
"`  c #7F9187",
"'  c #7E9088",
"]  c #668296",
"[  c #6B8593",
"{  c #6F8891",
"}  c #628098",
"|  c #708890",
" . c #7CB3D7",
".. c #76B1DE",
"X. c #79B2DA",
"o. c #5CA9FD",
"O. c #6FAFE6",
"+. c #67ADEF",
"@. c #6BAEEB",
"#. c #72B0E2",
"$. c #63ACF4",
"%. c #60ABF8",
"&. c #839384",
"*. c #899781",
"=. c #8B9880",
"-. c #B7BD97",
";. c #B9BE93",
":. c #B3BB9C",
">. c #9FB3B6",
",. c #97B0BF",
"<. c #9BB1BB",
"1. c #AAB7A7",
"2. c #ADB9A3",
"3. c #A6B6AC",
"4. c #A8B7A9",
"5. c #B0BAA0",
"6. c #A1B4B2",
"7. c #8FACCA",
"8. c #94AEC4",
"9. c #90ADC8",
/* pixels */
"9 7.7.7.7.7.7.7. .7.7.8.8.8.,.,.,.<.<.>.>.>.>.>.3.3.3.3.3.3.3.3.3.3.3.3.3.3.6.6.>.>.>.<.<.,.,.8.8.8.8.8.7.8.9.7. .7.7.7.7.7 ",
"7 / / / / / / / } } / / } } ] ] [ [ { | ) ) ' ' ' ' ` ' &.&.&.&.&.&.` ` ' ' ' ) _ ) ) | { [ [ ] ] } } ( / / / / / / / / / 7 ",
"7 / / / / / / / ~ } ~ } } ] ] [ [ { ) ) ) _ ' ' ' ` &.&.*.&.*.&.*.&.&.&.&.&.` ' _ _ ) ) { { [ ] ] } ( ( } / / / / / / / / 7 ",
"7 / / / / / / / } } } } } ] [ [ [ ) ) ) ' ' ' ` &.&.*.*.*.*.*.*.*.*.*.*.&.&.&.' ' _ _ ) ) { { [ [ ] ] ( ( ( / / / / / / / 7 ",
"7 / / / / / / / } } } } ] [ [ { ) ) _ ' ' ' &.&.&.*.*.M *.M M M M M *.*.*.*.&.&.` ` ' ) ) ) { { [ ] ] } ( ( / / / / / / / 7 ",
"7 / / / / / / / } } } } ] [ [ { ) ) ) ' ` ` &.*.*.*.M M M M M M M M M M *.=.*.&.&.` ' _ ) ) | { [ [ ] } } ( ( / / / / / / 7 ",
"7 / } / / } / / } } } ] ] [ { ) ) _ ' ' &.&.*.*.=.M M M N N N N N N M M M M =.*.&.&.&.' ' ) ) { [ [ ] ] } } ( / } / / / / 7 ",
"7 7 7 7 7 7 9 9 q q q e r r t t s d d a h j j k k l l z z z z z z z z l l l l j j j h f d d s t r r e q q 0 0 0 7 7 7 7 7 7 ",
"+               X X o O @ @ # # $ & & * = ; : : > , , , < 1 < < 1 , < , , , > : ; - = * & % $ # # @ O o X X .   .           ",
"G G G G H H F F F J K L L U Y Y Y c h = 2.2.:.:.:.:.-.-.;.-.;.;.-.-.-.-.-.-.:.:.5.5.1.4.3.% Y I P U L K J J F F H H G G G G ",
"G o.o.o.o.o.o.o.%.$.+.+.@.O.....X.c h = M M M M N V N V V V V V V V V V N N N M =.=.*.1.4.d T #.#.@.@.+.$.$.o.$.o.o.o.o.o.G ",
"G o.o.o.o.o.o.$.$.$.+.+.@.O.#...X.c h - &.M M N m b m b b m b m b b m b b b m v m =.*.*.1.d T ..#.O.@.+.$.$.$.o.o.o.o.o.o.G ",
"G o.o.o.o.o.$.o.%.$.+.+.@.#..... .c h ; =.M M m A Z S Z Z D Z A C D A S A Z Z D v v *.&.3.a T ..#.O.@.@.$.$.$.o.o.o.o.o.o.G ",
"G o.o.o.o.o.o.o.$.$.+.@.@.#..... .c h - =.M N N m v m m n m b m b b b m b b m v m M *.*.3.g T ..#.O.@.+.$.$.$.o.o.o.o.o.o.G ",
"G o.o.o.o.o.o.o.$.$.+.@.O.O.#... .c h ; : M M N M V V V V V V V V V V B B N N N M M *.&.3.g I 7.#.O.@.+.$.$.o.o.o.o.o.o.o.G ",
"G G G G G G G G F K K L U Y Y x c c h ; ; : , , < < 2 2 2 2 2 2 2 2 2 2 < < < , > : ; - * d R T P P L L K K J F F F G G G G ",
"7 7.7.7.7.8.8.8.8.,.,.<.<.>.>.3.3.4.4.2.2.:.:.-.-.-.-.;.;.;.;.;.;.;.;.;.;.;.;.-.:.5.5.2.6.3.6.6.>.<.<.>.<.8.8.9.7.7.7.7.7.7 ",
"7 / / / / / / / } ] ] [ [ | ) _ _ ` ` M M M M N M V V V V V V V V V V V V V V V =.=.*.*.&.&.' ) ) | | ( ( ( ( ( / / / / / 7 ",
"7 / / / / / } } } } ] [ [ | ) ) ' ` ` M *.M M M V N V V V V V V V V V V =.V =.=.=.*.*.&.&._ _ ) ) | ( | ( ( ( ( / / / / / G ",
"7 / / / } / / / } } ] ] [ | | _ _ ` ` ` *.M M M M V M V V V V V V V =.V V =.V =.=.*.&.&._ &._ ) &.( ) ( | ( ( ( / / / ^ ^ 5 ",
"7 / / / / / / } } } } ] [ | | ) _ ' ` &.*.M M M M N N V V V V N V =.V V =.=.=.=.=.*.&.&.) _ _ ) ( ) ( | ( ( ( ( / / / / / 7 ",
"7 / / / / / / } } } ] ] [ [ | ) ) _ ` ` &.&.*.M M N M N M V V N V V V =.=.=.=.=.*.*.&.&.&.) ) | ) ( | ( ( ( ( ( / / / / / 7 ",
"7 / / / / / / / } } } ] [ [ | | ) _ _ ' ` *.*.M M M N N N N M N V =.=.V V =.=.*.*.&.&.&.) ) ) | ) ( ( ( ( ( / / / / / / / 7 ",
"7 / / / / } / / } } } ] ] [ [ | ) _ _ ' ` &.&.*.M M M M M M N M =.V =.=.=.=.*.&.&.&.&._ _ ) | | | | | ( ( ( / / / / / / / 7 ",
"7 / / / / / / / / } } } } ] [ { | _ _ _ ` ` ` M M &.M M M M M M =.=.=.=.=.*.&.&.&.&.&.| ) ) | | ( ( ( ( ( ( ( ( / / / / / 7 ",
"7 / / / / / / / } / } } } ] [ | | | ) _ ' ' ` ` ` &.` M M M M &.*.&.=.=.&.&.&.&.) &.) &.) | | | ( | ( ( ( ( ( ( / ~ / / / 7 ",
"7 / / / / / / / / } } } ] ] ] [ { { | ) _ _ ' ` &.&.M M &.M ` M &.&.&.&.&.&.&.| &.| ) ) | | | ( | ( ( ( ( / ( ( / / / / / 7 ",
"7 / / / / / / / / / } / } ] ] [ [ [ { ) ) _ _ ' ` ` ' ` ` &.&.` &.&.&.&.&.&.&.&.&.) &.( &.( | | ( ( | ( ( ( / ( / / / / / 7 ",
"7 / / ~ / / / / / } / } } } ] ] [ [ [ | | ) ) _ _ _ ` ` ` ` ` ` &.&.( &.&.&.| &.( &.( &.| ( ( ( ( ( ( ( / / / / / / / / / 7 ",
"7 / / / / / / / / / } / } } } ] ] [ [ { { | ) ) _ _ _ _ ' ' ' ` &.&.&.&.( | &.&.&.( ( ( ) ( | ( ( ( ( ( ( / / / ^ / / / / 7 ",
"7 / / / / / / / / / / / ! } } } ] ] [ [ { { | | ) ) ) ) _ _ _ _ &.| ( &.&.( &.( ( &.&.( ( | ( ( ( ( ( / / / / / / / / / / G ",
"7 / / / / / / / / / / / } } } } } ] ] ] [ [ { { | | ) ) ) ) ) ) &.( &.&.( &.( &.( | ( ( | ( ( ( ( ( / / / / / / / / / ^ ^ 5 ",
"7 / / / ~ / / / / / / / / / / / ( ( ( | ( | [ | [ | | | ) | ) ) ) ) | | ) ) ( ) ( | ( | ( ( ( ( / / / / / / / / / / / / / 7 ",
"7 / / / / / / / / / / / / / / / ( ( ( ( ( ( [ | ( | ( | | ) ( ) [ [ [ [ ( | | ( | ( | ( ( ( ( ( / / / / / / / / / / / / / 7 ",
"7 / / / / / / / / / / / / / / / / ( ( ( [ ( | ( ( [ | ( | ( ) ( [ ) ( | | ( ( | ( ( ( ( ( ( ( ( / / / / / / / / / / / / / 7 ",
"7 / / / / / / / / / / / / / / / ( ( ( ( ( ( ( ( ( [ ( [ | ( ( | ( ( [ ( | ( ( ( ( ( ( ( ( ( ( ( / / / / / / / / / / / / / 7 ",
"7 / / / / / / / / / / / / / / / / ( / / ( ( ( ( ( [ ( ( | ( | ( ( [ ( | ( ( ( ( ( ( ( ( ( ( / / / / / / / / / / / / / / / 7 ",
"7 / / / / / ~ / ~ / / / / / / / / / / ( ( ( ( ( ( ( ( ( ( ( ( ( ( ( ( ( ( ( ( ( ( ( / / ^ / / / / / / / / / / / / ~ / / / 7 ",
"7 / / / / / / / / / / / / / / / / / ( ( ( ^ ( ( ( ( ( ( ( ( ( ( ( ( ( ( ( ( ( ( / ( / / / / / / / / ^ ^ / / ^ / / / / / / 7 ",
"7 / ~ ~ ~ ~ ~ ~ ~ ~ ~ ~ / ~ ~ ~ ^ ^ ^ ^ ^ ^ ^ ^ ( ^ ! ! ( ! ! ! ( ! ! ! ! ! ^ ! ^ ^ ^ ^ ^ ^ ^ ^ ^ ^ ^ ^ ^ ^ ^ ^ ~ ~ ~ ~ ~ 7 ",
"6 Q Q Q Q Q Q Q ~ ~ Q Q Q Q Q Q Q Q Q Q Q Q Q Q Q ^ Q ^ ^ Q Q ^ Q ^ Q Q Q Q Q Q Q Q Q Q Q Q Q Q Q Q Q Q Q Q Q Q Q Q Q Q Q 5 ",
"6 W W W R W W W ~ K W W W W W W Q Q R R R Q W Q E R E E W W W W W W W W Q W W R W W W W W W W W W R W W W W W W W W W W W 8 ",
"5 R R R R R R R Q W W W W W R R R R R R R R R R R R R R R R R R R R R R R R R R R R R R R R R R R R R R R R R R R R R R R 5 ",
"5 R R R R R R R L ~ P W R I R R R R R R R R R R R R R R R R T R R R R R R R R T R R R R R R R R R R R T R R R R R R R R R 5 ",
"5 T T R T T T T T T T T I T R T T T T T T T T T T R T T T T T T T T T T T T T T T T T T T T T R T T T T T T T T R T T T T 5 ",
"5 T T T I x T T T T T T Y R T Y x x T T T T T x T x T x T T T T T T T T T T T T T T T T T T T T T T T T T T T T T T T T T 4 ",
"3 x x x x x x x x x x x x x T x x x x x x x x x x x x x x x x I x x x x T x x T x x T x x T T x T x x x x x x x x x T I I 4 ",
"3 x x x x p x p x x p x p x p x x p x p x x p x p x x x p x p x i x x x p x p x p p x p p x p p p x p x p x x i x x i x T 4 ",
"3 x x i p I x x x x i x i x i x i i I i x x i p x x i i x i i x p x x i x p x i I x i x i x p x i p I p p x i p x i i x x 3 ",
"3 i i x i i i u u x i i i u x u x i u x i i p i u x u x i i i x i i i i i i p i i p i i i i i x p i i p i p i p i x i i i 3 ",
"3 i i i u x i i x u x u i i i x u i i i i i i i x u i i i i i i i i i i i i i i x u i i i i i i i i i i i p i i i i i i i 4 ",
"4 u i u u u u u u u y x u i u i u i u i i u i u u i u i u i i u u i u i u i u i u i u i u u i u u i i u u u i u i u i i u 4 ",
"3 u u u u u u i u u u u u u u u u u u u u u u u u u u u u u u u u u u u u u u u u u u u u u u u u u u u u u u i u u u u u 3 ",
"3 u u u u u u u u u u u u u u u u u u u u u u u u u u u u u u y u u u y u u u u y y u u u y u y u u u y u u u y y u u u u 3 ",
"3 y y y y y y y y y y y y y y y y y y y y y y y y y y y y y y y y y y y y y y y y y y y y y y y y y y y y y y y y y y y y 3 ",
"3 w w w w y w w 0 y y 0 y y 0 y w y w w w y w y 0 y y 0 y y y y w y w y y 0 y y y w w y y y y y w y w y w w y y y 0 y y 0 3 ",
"+ w w w 0 0 y 0 y 0 0 y 0 0 0 y w w w 0 w 0 w w w 0 w w 0 0 y 0 w 0 w w 0 0 y 0 0 y 0 y 0 w 0 w w w w w 0 w w 0 w w w 0 0 3 ",
"+ 0 0 0 0 0 0 0 0 0 0 0 0 0 0 0 9 0 0 0 0 0 0 0 0 0 0 0 0 0 0 0 0 0 0 0 0 0 0 0 0 0 0 0 0 0 0 0 9 0 0 8 0 0 0 0 0 0 0 0 0 + ",
"+ 8 9 0 0 0 8 8 8 0 8 0 8 0 0 8 0 8 8 0 0 8 8 8 8 0 0 8 0 8 0 8 8 0 0 8 0 8 0 8 0 8 0 0 8 0 0 0 8 0 0 8 0 0 8 8 0 8 0 0 8 + ",
"+ 8 8 8 8 8 8 8 8 8 8 8 8 8 8 8 8 8 8 8 8 8 8 8 8 8 8 8 8 8 8 8 8 8 8 8 8 8 8 8 8 8 8 8 8 8 8 8 8 8 8 8 8 8 8 8 8 8 8 8 8 + ",
"+ + + + + + + + + + + + + + + + + + + + + + + + + + + + + + + + + + + + + + + + X + + + + + . + + + + + + + + + + + + + + + ",
"                                                                                                                            "
};
