/* XPM */
static char *b0735a2b28814b8fa554d87f1cb643c68gKhLobUW11HspMx[] = {
/* columns rows colors chars-per-pixel */
"62 62 7 1 ",
"  c #383C3D",
". c #4B4B4D",
"X c #73787B",
"o c #888D91",
"O c #8C9194",
"+ c #959CA2",
"@ c #A5AAAE",
/* pixels */
"++++++++++++++++++++++++++++++++++++++++++++++++++++++++++++++",
" @@@@@@@@@@@@@@@@@@@@@@@@@@@@@@@@@@@@@@@@@@@@@@@@@@@@@@@@@@@@+",
" .ooooooooooooooooooooooooXXXXXXXXXXXXXXXXXXXooooooooooooooo@+",
"  ooooooooooooooooooooooooXXXXXXXXXXXXXXXXXXXooooooooooooooo@+",
" .ooooooooooooooooooooooooXXXXXXXXXXXXXXXXXXXooooooooooooooo@+",
" .ooooooooooooooooooooooooXXXXXXXXXXXXXXXXXXXooooooooooooooo@+",
" .ooooooooooooooooooooooooXXXXXXXXXXXXXXXXXXXooooooooooooooo@+",
" .ooooooooooooooooooooooooXXXXXXXXXXXXXXXXXXXooooooooooooooo@+",
" .ooooooooooooooooooooooooXXXXXXXXXXXXXXXXXXXooooooooooooooo@+",
" .ooooooooooooooooooooooooXXXXXXXXXXXXXXXXXXXooooooooooooooo@+",
" .ooooooooooooooooooooooooXXXXXXXXXXXXXXXXXXXooooooooooooooo@+",
" .ooooooooooooooooooooooooXXXXXXXXXXXXXXXXXXXooooooooooooooo@+",
" .ooooooooooooooooooooooooXXXXXXXXXXXXXXXXXXXooooooooooooooo@+",
" .ooooooooooooooooooooooooXXXXXXXXXXXXXXXXXXXooooooooooooooo@+",
" .ooooooooooooooooooooooooXXXXXXXXXXXXXXXXXXXooooooooooooooo@+",
" .ooooooooooooooooooooooooXXXXXXXXXXXXXXXXXXXooooooooooooooo@+",
" .ooooooooooooooooooooooooXXXXXXXXXXXXXXXXXXXooooooooooooooo@+",
" .ooooooooooooooooooooooooXXXXXXXXXXXXXXXXXXXooooooooooooooo@+",
" .ooooooooooooooooooooooooXXXXXXXXXXXXXXXXXXXooooooooooooooo@+",
" .ooooooooooooooooooooooooXXXXXXXXXXXXXXXXXXXooooooooooooooo@+",
" .ooooooooooooooooooooooooXXXXXXXXXXXXXXXXXXXooooooooooooooo@+",
" .ooooooooooooooooooooooooXXXXXXXXXXXXXXXXXXXooooooooooooooo@+",
" .ooooooooooooooooooooooooXXXXXXXXXXXXXXXXXXXooooooooooooooo@+",
" .ooooooooooooooooooooooooXXXXXXXXXXXXXXXXXXXooooooooooooooo@+",
" .ooooooooooooooooooooooooXXXXXXXXXXXXXXXXXXXooooooooooooooo@+",
" .OoooooooooooooooooooooooXXXXXXXXXXXXXXXXXXXooooooooooooooo@+",
" .ooooooooooooooooooooooooXXXXXXXXXXXXXXXXXXXooooooooooooooo@+",
" .ooooooooooooooooooooooooXXXXXXXXXXXXXXXXXXXooooooooooooooo@+",
" .ooooooooooooooooooooooooXXXXXooooooooooooooooooooooooooooo@+",
" .ooooooooooooooooooooooooXXXXXooooooooooooooooooooooooooooo@+",
" .ooooooooooooooooooooooooXXXXXooooooooooooooooooooooooooooo@+",
" .ooooooooooooooooooooooooXXXXXooooooooooooooooooooooooooooo@+",
" .ooooooooooooooooooooooooXXXXXooooooooooooooooooooooooooooo@+",
" .ooooooooooooooooooooooooXXXXXooooooooooooooooooooooooooooo@+",
" .XXXXXXXXXXXXXXXXXXXXXXXXXXXXXoooooooooooooooooooooXXXXXXXX@+",
" .XXXXXXXXXXXXXXXXXXXXXXXXXXXXXoooooooooooooooooooooXXXXXXXX@+",
" .XXXXXXXXXXXXXXXXXXXXXXXXXXXXXoooooooooooooooooooooXXXXXXXX@+",
" .XXXXXXXXXXXXXXXXXXXXXXXXXXXXXoooooooooooooooooooooXXXXXXXX@+",
" .XXXXXXXXXXXXXXXXXXXXXXXXXXXXXoooooooooooooooooooooXXXXXXXX@+",
" .XXXXXXXXXXXXXXXXXXXXXXXXXXXXXoooooooooooooooooooooXXXXXXXX@+",
" .XXXXXXXXXXXXXXXXXXXXXXXXXXXXXoooooooooooooooooooooXXXXXXXX@+",
" .XXXXXXXXXXXXXXXXXXXXXXXXXXXXXoooooooooooooooooooooXXXXXXXX@+",
" .XXXXXXXXXXXXXXXXXXXXXXXXXXXXXoooooooooooooooooooooXXXXXXXX@+",
" .XXXXXXXXXXXXXXXXXXXXXXXXXXXXXoooooooooooooooooooooXXXXXXXX@+",
" .XXXXXXXXXXXXXXXXXXXXXXXXXXXXXoooooooooooooooooooooXXXXXXXX@+",
" .XXXXXXXXXXXXXXXXXXXXXXXXXXXXXoooooooooooooooooooooXXXXXXXX@+",
" .XXXXXXXXXXXXXXXXXXXXXXXXXXXXXoooooooooooooooooooooXXXXXXXX@+",
" .XXXXXXXXXXXXXXXXXXXXXXXXXXXXXoooooooooooooooooooooXXXXXXXX@+",
" .oooooooooooooooooooooXXXXXXXXooooooooooooooooooooooooooooo@+",
" .oooooooooooooooooooooXXXXXXXXooooooooooooooooooooooooooooo@+",
" .oooooooooooooooooooooXXXXXXXXooooooooooooooooooooooooooooo@+",
" .ooooooooooooooooooooooooXXXXXXXXXXXXXXXXXXXooooooooooooooo@+",
" .ooooooooooooooooooooooooXXXXXXXXXXXXXXXXXXXooooooooooooooo@+",
" .ooooooooooooooooooooooooXXXXXXXXXXXXXXXXXXXooooooooooooooo@+",
" .ooooooooooooooooooooooooXXXXXXXXXXXXXXXXXXXooooooooooooooo@+",
" .ooooooooooooooooooooooooXXXXXXXXXXXXXXXXXXXooooooooooooooo@+",
" .ooooooooooooooooooooooooXXXXXXXXXXXXXXXXXXXooooooooooooooo@+",
" .ooooooooooooooooooooooooXXXXXXXXXXXXXXXXXXXooooooooooooooo@+",
" .ooooooooooooooooooooooooXXXXXXXXXXXXXXXXXXXooooooooooooooo@+",
" .ooooooooooooooooooooooooXXXXXXXXXXXXXXXXXXXooooooooooooooo@+",
" ............................................................+",
"                                                              "
};
