/* XPM */
static char *b5469ffe81684481b30d1bb1fe161cd9npdO7awMw75LJ4qR[] = {
/* columns rows colors chars-per-pixel */
"61 63 256 2 ",
"   c black",
".  c #321909",
"X  c #581A1A",
"o  c #3D1C04",
"O  c #2B1D1E",
"+  c #271F13",
"@  c #561F06",
"#  c #342019",
"$  c #4E2005",
"%  c #3C2119",
"&  c #482219",
"*  c #70221F",
"=  c #462423",
"-  c #552424",
";  c #63241F",
":  c #2C262E",
">  c #53262E",
",  c #562619",
"<  c #5E262E",
"1  c #44280A",
"2  c #59283E",
"3  c #38292D",
"4  c #4B2930",
"5  c #432A31",
"6  c #862A2F",
"7  c #362B35",
"8  c #3B2B25",
"9  c #472B18",
"0  c #5F2C08",
"q  c #782D2F",
"w  c #472E24",
"e  c #302F22",
"r  c #44313B",
"t  c #4A3150",
"y  c #6C3133",
"u  c #383331",
"i  c #483331",
"p  c #3A343D",
"a  c #6C3409",
"s  c #573510",
"d  c #63350F",
"f  c #643535",
"g  c #433617",
"h  c #583723",
"j  c #583736",
"k  c #583747",
"l  c #A7383E",
"z  c #1F3921",
"x  c #8E391B",
"c  c #993932",
"v  c #693A1E",
"b  c #493B38",
"n  c #893B42",
"m  c #0F3D28",
"M  c #4A3E44",
"N  c #78411F",
"B  c #F9432E",
"V  c #79450F",
"C  c #554649",
"Z  c #5D4735",
"A  c #724832",
"S  c #C94B3A",
"D  c #D74C2A",
"F  c #EA4C34",
"G  c #6C4E47",
"H  c #DA4E39",
"J  c #E94E44",
"K  c #894F0F",
"L  c #D74F46",
"P  c #385042",
"I  c #A85047",
"U  c #C95129",
"Y  c #9C5251",
"T  c #B75241",
"R  c #605323",
"E  c #D75355",
"W  c #8D544C",
"Q  c #C75547",
"!  c #5F565F",
"~  c #61582F",
"^  c #91582E",
"/  c #BB585D",
"(  c #C85A58",
")  c #7E5B54",
"_  c #D15F38",
"`  c #6C6344",
"'  c #CE641D",
"]  c #816674",
"[  c #896664",
"{  c #7A675F",
"}  c #A16837",
"|  c #A06926",
" . c #CA6954",
".. c #696A60",
"X. c #966A4F",
"o. c #3D6B5A",
"O. c #7B6E76",
"+. c #B16E43",
"@. c #69706E",
"#. c #CB701B",
"$. c #D2702C",
"%. c #D37024",
"&. c #737173",
"*. c #B1714E",
"=. c #DA712A",
"-. c #E4712B",
";. c #B37426",
":. c #D5743E",
">. c #B77537",
",. c #8D776B",
"<. c #9A775D",
"1. c #E7784E",
"2. c #A8795C",
"3. c #B57960",
"4. c #CA7941",
"5. c #FA7957",
"6. c #887A76",
"7. c #DF7C2A",
"8. c #C97D22",
"9. c #9A7E6A",
"0. c #BA7E4C",
"q. c #DA7E58",
"w. c #927F77",
"e. c #C57F2D",
"r. c #A78065",
"t. c #AC8053",
"y. c #DF8133",
"u. c #A08277",
"i. c #C88259",
"p. c #D28230",
"a. c #8B8382",
"s. c #B78566",
"d. c #F48532",
"f. c #D18644",
"g. c #E38640",
"h. c #F2863D",
"j. c #8F878E",
"k. c #A58C89",
"l. c #FC943B",
"z. c #B79772",
"x. c #DA9734",
"c. c #8E989A",
"v. c #D9984C",
"b. c #78998F",
"n. c #CF995E",
"m. c #EB9A53",
"M. c #F59A43",
"N. c #CF9B6D",
"B. c #659C9A",
"V. c #E89C60",
"C. c #EC9C48",
"Z. c #F39C4B",
"A. c #FC9C44",
"S. c #FC9C5B",
"D. c #FE9C4B",
"F. c #F59D54",
"G. c #FB9D3A",
"H. c #FD9D53",
"J. c #DD9E5E",
"K. c #EC9E3A",
"L. c #779FA0",
"P. c #E49F4A",
"I. c #86A181",
"U. c #99A288",
"Y. c #F4A25C",
"T. c #F4A353",
"R. c #FCA344",
"E. c #FCA353",
"W. c #FCA35D",
"Q. c #FDA33A",
"!. c #FDA34B",
"~. c #EAA454",
"^. c #ECA45D",
"/. c #F4A44C",
"(. c #FEA429",
"). c #6EA5B0",
"_. c #DCA577",
"`. c #E4A55C",
"'. c #EDA54A",
"]. c #F4A544",
"[. c #B0A693",
"{. c #C3A682",
"}. c #F5A63A",
"|. c #9FA796",
" X c #E0A76B",
".X c #ECA76F",
"XX c #B4A879",
"oX c #CFA975",
"OX c #D6AA65",
"+X c #F3AA6F",
"@X c #FCAA6E",
"#X c #EBAB54",
"$X c #FCAB5F",
"%X c #DDAC5A",
"&X c #E1AC82",
"*X c #EAAC63",
"=X c #F4AC5E",
"-X c #F8AC54",
";X c #FEAC4D",
":X c #CBAD85",
">X c #EAAD5B",
",X c #DEAE78",
"<X c #89AFA0",
"1X c #B5AFB4",
"2X c #E6B244",
"3X c #FDB280",
"4X c #84B3B5",
"5X c #BFB39F",
"6X c #E1B38E",
"7X c #EEB36E",
"8X c #F1B380",
"9X c #F7B343",
"0X c #F1B595",
"qX c #D1B9AE",
"wX c #F7C34B",
"eX c #E5C74A",
"rX c #F9C758",
"tX c #CDC9C7",
"yX c #FFCB81",
"uX c #EACC57",
"iX c #DDD1D9",
"pX c #D3D2D7",
"aX c #D9D456",
"sX c #FFD598",
"dX c #FED88B",
"fX c #E1DAE3",
"gX c #DCDCDB",
"hX c #FDDC70",
"jX c #FFDFC3",
"kX c #EDE0DA",
"lX c #E1E2E5",
"zX c #ECE2E9",
"xX c #FEE2E6",
"cX c #FDE37F",
"vX c #FCE473",
"bX c #F1EBEE",
"nX c #FCEB8F",
"mX c #FBEC9F",
"MX c #FCEC78",
"NX c #FDEF83",
"BX c #F3F07B",
"VX c #FFF1C7",
"CX c #F1F2E5",
"ZX c #F4F3F4",
"AX c #FDF3EC",
"SX c #FFF3E1",
"DX c #EEF4EB",
"FX c #F4F4FD",
"GX c #FCF4F4",
"HX c #FCF5FB",
"JX c #F3FBF2",
"KX c #FDFCED",
"LX c #FDFCF5",
"PX c #F5FDFD",
"IX c white",
"UX c None",
/* pixels */
"IXIXIXIXIXIXIXIXIXIXIXIXIXIXLXIXKXLXLXIXIXIXIXIXIXIXIXIXIXIXGXHXGXGXIXLXDXJXIXIXIXIXIXIXIXIXIXIXIXIXIXIXIXIXIXIXIXIXIXIXIX",
"IXIXIXIXIXIXIXIXIXIXIXIXIXIXZXIXJXJXLXJXJXZXLXLXLXLXLXIXIXIXHXHXHXGXLXKXKXLXIXIXIXIXIXIXIXIXIXIXIXIXIXIXIXIXIXIXIXIXIXIXIX",
"IXIXIXIXIXIXIXIXIXIXIXIXIXIXPXIXPXIXIXIXIXIXIXLXIXIXIXIXIXIXbXHXHXIXGXKXKXKXIXIXIXIXIXIXIXIXIXIXIXIXIXIXIXIXIXIXIXIXIXIXIX",
"IXIXIXIXIXIXLXLXLXIXIXIXIXPXFXpXlXgXlXgXfXlXgXgXgXgXfXfXfXfXzXzXzXkXtXkXKXCXIXIXIXIXIXIXIXIXIXIXIXIXIXIXIXIXIXIXIXIXIXIXIX",
"IXIXIXIXIXIXKXSXKXLXIXIXIXIX&.: p u p p 7 7 u u u u p p p p r 7 p 7 7 j.DXIXIXIXIXIXIXIXIXIXIXIXIXIXIXIXIXIXIXIXIXIXIXIXIX",
"IXIXIXIXIXIXKXSXKXKXLXIXIXIXj.3 b i i k r j b b b b b b b b C i C b u c.PXPXIXIXIXIXIXIXIXIXIXIXIXIXIXIXIXIXIXIXIXIXIXIXIX",
"IXIXIXIXIXIXKXCXLXCXIXLXGXLX6.# w & & - & & & 9 9 9 9 9 9 9 9 9 9 # e c.IXIXIXLXIXIXIXIXZXIXIXIXIXIXIXHXIXbXIXIXIXIXIXIXIX",
"IXIXIXIXIXIXJXJXIXLXLX6.6.{ u.9.2.2.s.3.3.3.3.3.3.3.2.t.t.t.t.t.2.<.,.w.a.j.a.DXIXIXIXHXFXIXIXIXIXIXIXGXIXIXIXIXIXIXIXZXIX",
"IXIXIXIXIXIXIXPXFXZXzX+ 9 o 2.6X,X,X8X.X.X+X+X@X+X+X+X+X=X=X~.>X7X8X0X<.. % O CXAXAXIXIXIXIXIXIXIXHXIXGXHXGXbXZXIXIXIXIXIX",
"IXIXIXIXIXIXFXFXHXIXAX= h 0 +.8X`.>X~.C.T.T.H.S.S.S.S.F././.;X].C.m..X*.$ A w KXLXAXLXIXIXZXIXZXIXHXIXIXIXIXIXIXIXIXZXIXIX",
"IXIXIXIXIXIXIXFXzXzXqXf d 0 f.^.'./.K./.!.!.A.D.D.D.D.D.A.A.G.G.;X/.^.0.a v Z qXSXkXkXLXGXIXIXIXIXZXiXzXzXbXlXgXlXIXIXIXIX",
"IXIXIXIXIXIXIXa.O % G 6X8X+XY.C.;X;XG.;X!.R.R.!.!.E.E.E.!.!.R.G.R.M.T.@X.X&X:XZ 9 # w.LXIXGXIXHXbX1Xp u 3 u u : @.ZXIXIXIX",
"IXIXIXIXIXIXAX,.w h v _.V.V.$XM.!.R.R.!.Z.C.]./.T.T.Y.Y.H.H.A.A.R.R.C.^.^.N.6Xh h # w.AXGXIXIXIXIXtX: b r M M : &.IXIXIXIX",
"IXIXIXIXIXIXLX{ o d a .XY.$X!.R.R.G.!.D.E.!././.T.Y.Y.W.W.E.!.!.A.!.-XT.=X`.oX$ s o 9.AXGXIXIXIXIXtX# j 4 5 r : a.IXbXIXIX",
"IXIXIXHX@.j.6.u.+.;.p.'.'./.A.G.Q.Q.R.A.A.!.R.!.E.E.E.D.!.R.R.A.D.E.E./.].#X%X0.>.*.r.,.k.j.j.j.j.[ W n Y y 2 r O.IXZXIXHX",
"IXIXHXiX: p # r.3X-X].'.'.$X$X!.}.}.R.!.R.A.R.R.!.!.!.R.Q.Q.!.D.H.F.F.T.!.;X=X`.$X3X2.& = r 7 7 7 y I Q ( n 2 5 O.IXIXIXIX",
"IXIXIXfX7 r w r.+XZ./.=X.X.XV.Y./.].A.A.R.R.Q.Q.R.R.R.Q.Q.Q.R.!.W.W.W.Y.Z.P.%Xv.Y.@X3.X > k k 4 > n ( Q ( q f 5 &.ZXJXJXIX",
"HXHXIXzXp M w r.+XZ.C.T..X.X@X@X$X/.R.R.R.Q.Q.Q.R.R.R.Q.Q.Q.}.].F.F.Y.Y.-X-X>X#XC.V.*.; q y y y * c S S ( 6 > 3 O.IXPXIXIX",
"IXIXIXiX7 i % 2.@X!.R./.Y.@XS.H.M.M.R.!.R.G.].]./././.].}.}.}.R.E.E.F.E.R.].'.#X-X+X2., < X / ( E L F H ( q f 5 ..IXDXJXZX",
"IXIXIXfXp M i 2.F.G.R.!.m.Y.S.H.E.;XR.A.R.;X/.T.T.T././.}.}.].].T.W.W.T.].].C.'.P.7Xr.& f q T L J F F H ( q y 4 { IXJXPXZX",
"IXGXHXiX7 b % 3.@X!.].#X`.`.@X=X#X-XR.G.M.E.H.H.S.S.T./.].}.].P.P.^.*X~.#X-X-X$X~. X<.% f * Q F B B B H ( 6 ; X w.AXLXZXIX",
"IXIXIXfX7 r w s.=XC.>XyXsXsX0.| K ;.C.-X!.D.D.H.H.H.H.!.].].'.>XyXsXsXn.| K | P.=X7X2.= f ; Q F B B B H E l I q [ k.j.j.lX",
"IXIXIXfX7 M = 2.+XP.8XVXVXSX,.  1 $ >X/.H.D.l.l.l.A.A.A.}.].#X%XVXjXVXz.. o @ n.=X.X2.- < * Q D F F F J L E ( / W & 5 O pX",
"IXIXIXfX7 M = s.7XJ.&XSXKXLXa.# g s 7XT.H.D.l.l.l.l.G.G.R.].#Xn.jXjXSX[.+ Z $ n.*X+X3.< < ; T U D D D H J E E ( I - j 3 iX",
"IXIXIXfX7 M % s.^.^.6XjXAXGX[ & & d +XT.H.E.A.G.A.A.R.R.]./.>X.XjXjXSX[.# 9 s n.`..X3.< > < +._ D D _ S L S L L I ; j 5 iX",
"IXIXIXfX7 M 5 r..X=Xn.v = & f , $ 0 ^./.E.E./.'././././././.^.J.0 $ j = % w 0 oX*X X3.> 4 j ^ _ U 5.3X3X0X5.H L I ; j 3 iX",
"IXIXIXfX7 M b <.*XY.n.@ , f @ ; @ a ~./.E.F.#X>X>X^.T./././.=X.X@ $ h w b 9 $ N.7X X2.- i j T _ D 5.sXyXyX_ H L I X j 3 iX",
"IXIXIXfX7 M 8 <.7X>XN.o o . & , , a ~./.E.T.~.>X^.Y.T./.R./.T.V.a h w 8 + . 9 N.*X7X2.- j - T _ D 5.sXdXdX4.U L I , j 7 iX",
"IXIXIXfX7 M 8 r.7X%XXX..@.@.P e e s >X].!.!.!.!.H.D.D.A.R.R.-XJ.0 9 + P o...` oX%X7X*.X f - T _ D 1.sXdXcXe.U S I , j 3 pX",
"IXIXIXfX7 M i r.%XOX[.c.L.4Xo.z z h *X].M.!.D.D.D.D.D.A.A.A.Z.+X$ g z o.<Xb.U.:X%X+X*.X k < T H D 1.mXnXcX;._ Q I , b 3 pX",
"IXIXIXiXp M i r.%X%X5Xc.).L.P z e d C.R.!.!.!.!.!.E././.!.D.H.S.0 g z o.).B.I.XX.X+Xr.4 k 2 S F D 1.mXcXnX>.Q E I X j e pX",
"IXGXIXiX: r 3 r.#XP.XXj.c.<Xo.z z R m.D.!.C././.E.T././.R.A.D.V.s e m o.L.I.I.XX+X3Xr.3 t 2 Q L S q.sXdXsXi.T / Y y i u tX",
"GXGXIXzX7 C 3 r.-XG.+X_.{.[.<XB.B.b.,X~.T.-X/.T.H.H.R.Q.(.Q.Y.6Xa.L.B.<X5XoXOX`.m.+Xt.9 k k y q * c  .Q ( 6 * ; [ xXAXDXPX",
"IXIXIXfX: r 8 r.Y.l.E.=X X:X<X).).L.oXv.P.T./.D.H.H.R.Q.(.Q.~.{.c.).B.|.OX'.Y.^.Y.+Xt.1 i r 5 j 2 n Q S ( 6 y & { LXJXIXJX",
"IXIXIXiX7 7 e 9.8X@Xm.C.P.,XU.b.B.I.,X$X-X!.G.A.H.H.!.Q.(.}.>X{.c.L.b.XXP.R.W.V.8X&XX.1 % 3 p p 2 n Q H E 6 w e &.IXDXPXPX",
"IXIXIXbXj.c.a.w.<.*.>.>X'.`.{.U.U.XX~.R.].K.G.G.D.H.E./.}.K.>XoX[.|.[.oXP.].@X+.*.X.<.9.u.j.M p r W 1.1.q.q j e @.JXJXIXPX",
"ZXZXIXIXHXHXAXw.+ % s  X=X^._.oXoX*XR.Q.R.R.G.G.A.E.T.T././.=X*X_.oXoX X#X>X Xv , & u.SXIXIXC r = W $XE.8XA w 3 &.IXPXIXIX",
"IXHXIXHXIXGXKX6.# j v ,XY.F.Y.^.^.T.G.G.Q.K.Q.Q.R.!.T.T.T.T.F.F.Y.Y.*X`.#X%X,Xv ; & u.LXGXbXC i 1 ^ =XP.7Xv 4 5 ..IXIXIXHX",
"IXHXIXHXIXIXKX,.& s V `.D.D.F.$X=XZ.D.D.].]./.].].].].R.D.D.H.H.E.K./.~.~.*XOXV 0 @ w.LXGXLXZ s @ | P.#X,XA > 5 ] HXHXIXIX",
"IXHXIXpX! C b <.:X,Xv.p.7.7.h.H.E.F.H.W.T.-X'.'.'.K.}.}.G.A.A.M.!.A.E.h.p.4.f.f..XN.<.G b Z z.OXn.^.-Xm._.A > 5 ] HXHXIXIX",
"IXbXIXfX: u . s.,XV.=X#.7.' h.D.E.H.S.Y.~.#XE.-X'.2X2X}.Q.Q.R.G.G.A.D.y.$.$.7.F.$X3X2.& - , n.*X=XW.H.Y.&XA 4 5 O.HXHXIXIX",
"IXZXIXzX: C w z.J.v./.#.p.%.h.A.D.D.W.~.'.'.T./.2X2X2XK.}.Q.Q.}.}.;XE.h.-.=.%.Z.C.@X*.@ q * v./.C.M.D.S.&XZ i 7 O.IXHXIXIX",
"IXIXZXiX7 b % 2.+X$XF.p.f.P.h.d.d.d.-X-XrX-X9X9XeXeXeXeX9X9X9X9Xx.d.h.h.h.h.g.E./.$X4.x c x Z.;X!.D.D.F.,X~ u 7 &.IXZXIXIX",
"ZXIXGXiXM M i 2.^.H.C.$X>X^.g.-.-.7.wXwXrXrXrXrXuXuXuXrXrXrXrXrX8.#.' d.H.E.$XE.M.E.m.q.1.1.l.Q.M.D.D.m.,X~ u u @.IXGXIXIX",
"IXIXIXfXp 7 8 r.W.D.l.-X#X*Xf.$.=.7.wXeXrXuXuXuXeXeXeXwXwXrXuXrXp.%.-.h.!.].'.'.!.!.g.$.:.=.R.;XC.T.E.^.,XZ u u &.IXGXIXLX",
"IXbXIXgX7 M O u..XS.E.Z.P.=Xg.$.=.p.rXeXuXuXaXaXaXeXeXwXuXuXuXrXe.$.-.h.D./.-X/.A.E.M.%.$.$.K.;X~.^.^. X6XZ u u &.IXGXIXIX",
"IXIXIXZXbXlXlX6.h a K f.$.g.=.=.%.p.cXhXMXMXBXBXBXBXMXMXMXvXhXhX#.=.-.-.-.y.7.y.=.=.h.D.D.A.!.M.$X>.a A j tXzXbXZXIXIXIXIX",
"IXIXIXIXIXIXFXa.# s a f.$.=.-.-.%.8.cXhXMXBXBXBXBXBXMXMXBXBXMXvX8.%.-.-.=.%.#.=.7.=.h.W.W.E./.C.*X0.$ 9 5 bXIXIXIXIXIXIXIX",
"IXIXIXIXIXIXHXw.& v a 4.$.=.=.=.8.8.hXvXNXBXBXMXcXvXMXMXBXBXMXhX8.#.%.=.$.7.7.#.%.' f.@X@XV.+X.X,Xt.1 % O iXIXIXIXIXIXIXIX",
"IXIXIXIXIXHXHX[ - ; x q.g.$.y.y.p.x.vXvXBXBXMXvXvXvXMXMXMXMXMXcXx.y.y.y.y.y.7.7.g.m.q.*.0.s.*.s.2.r.,.w.6.zXIXIXIXIXIXIXIX",
"IXIXIXIXIXIXHX[ - , v 8X@X@XW.!.'.2XMXvXBXBXvXvXhXhXvXMXBXBXcXcX>XY.W.S.W.T.;X;Xm..X+.$ $ & h h . [ AXIXGXIXIXIXIXIXIXIXIX",
"IXIXIXIXIXIXGX6.= f y 0X XV.Y./.'.2XhXhXNXNXNXMXcXcXnXnXnXnXmXdX`.m.S.S.W.F./.C.`.8X2., j k 5 r 3 a.IXbXHXIXIXIXIXIXIXIXIX",
"IXIXIXIXIXGXIX6.O 5 G {.6X8XV.=X-X-XyXyXnXdXnXnXmXmXmXmXmXmXmXsX@X@XS.S.S.H.$X^.8X&XX.i 3 7 M 7 : &.ZXIXIXZXIXIXIXIXIXIXIX",
"IXIXIXIXIXIXIXlXlXzXtXZ A a } f.p.e.f.f.f.} R R R ~ ~ ~ ~ R R ^ >.:.1.-.-.y.f.K N A 9.kXzXfXfXlXlXlXIXIXZXIXIXIXIXIXIXIXIX",
"IXIXIXIXIXIXPXPXPXIXbX# j $ ^ i.>.>.>.+.i.N w u u u u u e g g 0 *.4.:.' 7.$.i.@ v 9 ,.IXIXPXPXPXIXIXIXIXIXIXIXIXIXIXIXIXIX",
"IXIXIXIXIXIXPXPXPXIXzX3 w o X.s.0.i.i.0.i.W 3 : 7 7 7 7 u e # h 3.i.q.:.:.4.3.y & # ,.LXIXPXPXPXIXIXIXIXIXIXIXIXIXIXIXIXIX",
"IXIXIXIXIXIXIXPXFXFXzXO.O.[ ) X.X.X.X.X.X.[ O.O.O.O.O.O.&.&.{ ,.W Y I *.} 2.W u.) { 5XIXLXJXIXIXIXIXIXIXIXIXIXIXIXIXIXIXIX",
"IXIXIXIXIXIXFXHXIXHXIXbXIXLXk.9 & 9 h % % 5XLXIXHXHXIXIXIXIXIXxXG < - - & w 4 xXHXGXAXKXCXLXLXLXIXIXIXIXIXIXIXIXIXIXIXIXIX",
"IXIXIXIXIXIXHXIXIXZXGXLXbXCXa.# C i b Z + [.AXAXAXAXGXGXPXPXFXzXr 2 k k M 7 r GXGXAXLXLXLXLXLXIXIXIXIXIXIXIXIXIXIXIXIXIXIX",
"IXIXIXIXIXIXHXHXIXIXLXLXAXIXa.O r 7 p u + |.KXKXKXGXLXLXIXPXIXHXC r 7 : p p u gXLXIXLXJXDXGXIXIXIXIXIXIXPXPXIXIXIXIXIXIXIX",
"IXIXIXIXIXIXIXIXJXJXKXCXDXLXzXpXfXpXpXgXtXDXIXIXIXIXIXIXIXIXPXIXiXiXiXiXpXpXtXIXJXCXJXJXLXIXIXHXIXIXIXPXPXPXIXIXIXIXIXIXIX",
"IXIXIXIXIXIXZXIXIXJXLXKXLXLXIXIXFXIXIXbXIXJXPXIXIXIXIXIXIXIXIXZXIXGXLXIXJXJXJXJXJXLXIXJXZXIXHXHXHXIXIXPXPXPXIXIXIXIXIXIXIX",
"IXIXIXIXIXIXIXIXIXIXIXIXIXIXIXIXIXIXIXIXIXIXIXIXIXIXIXIXIXIXIXIXIXIXIXIXIXIXIXIXIXIXIXIXIXIXIXIXIXIXIXIXIXIXIXIXIXIXIXIXIX"
};
