/* XPM */
static char *_d2c81481bde4428cfeb1be1243232ccg47BkEsdMNWDoYvd[] = {
/* columns rows colors chars-per-pixel */
"62 62 118 2 ",
"   c None",
".  c #2F2126",
"X  c #20242A",
"o  c #2F2128",
"O  c #37273A",
"+  c #38273B",
"@  c #39283D",
"#  c #253132",
"$  c #273B39",
"%  c #283C39",
"&  c #44263F",
"*  c #41293F",
"=  c #532639",
"-  c #5B273B",
";  c #75272A",
":  c #74282B",
">  c #7B2A2B",
",  c #773734",
"<  c #7F3837",
"1  c #29423F",
"2  c #253F45",
"3  c #472740",
"4  c #452941",
"5  c #4E2843",
"6  c #462D49",
"7  c #4B2E4D",
"8  c #512847",
"9  c #5B2946",
"0  c #532E4E",
"q  c #522E50",
"w  c #5C2E53",
"e  c #632840",
"r  c #6A2942",
"t  c #6F394C",
"y  c #612E54",
"u  c #6B2D57",
"i  c #6D2D59",
"p  c #7C2E57",
"a  c #732E5C",
"s  c #792E5B",
"d  c #264144",
"f  c #2D4B44",
"g  c #2E5049",
"h  c #2A5355",
"j  c #2E5956",
"k  c #295359",
"l  c #2A5A5C",
"z  c #2D656C",
"x  c #2E696F",
"c  c #2D766F",
"v  c #2E6D73",
"b  c #2E7274",
"n  c #2E7D74",
"m  c #812E2D",
"M  c #813936",
"N  c #A52B2C",
"B  c #AB2C2D",
"V  c #B32C2D",
"C  c #B5322F",
"Z  c #AE2D31",
"A  c #A22D3D",
"S  c #A92D3C",
"D  c #B12C30",
"F  c #AB323E",
"G  c #B63631",
"H  c #B93531",
"J  c #BD4C3D",
"K  c #8A2D47",
"L  c #8E2E49",
"P  c #9C2D42",
"I  c #9C2E4F",
"U  c #842E56",
"Y  c #8C2E54",
"T  c #832E58",
"R  c #942E52",
"E  c #9A2E53",
"W  c #9D3352",
"Q  c #9F3854",
"!  c #A42E44",
"~  c #A63143",
"^  c #A93745",
"/  c #A03853",
"(  c #BB5741",
")  c #BE5842",
"_  c #B65750",
"`  c #B75A51",
"'  c #B85C52",
"]  c #C15544",
"[  c #C25C44",
"{  c #C5644C",
"}  c #C86E4A",
"|  c #CA744E",
" . c #CB784F",
".. c #C76851",
"X. c #C77352",
"o. c #CA7651",
"O. c #CC7B52",
"+. c #CE7F58",
"@. c #2E8773",
"#. c #2E8A74",
"$. c #2E9675",
"%. c #2E9975",
"&. c #CF825C",
"*. c #D0845E",
"=. c #D08660",
"-. c #D28966",
";. c #D38C68",
":. c #DDA690",
">. c #DEAA91",
",. c #E0AE96",
"<. c #E2B19A",
"1. c #E7C0AE",
"2. c #E9C4B3",
"3. c #EBCABB",
"4. c #FAF3EF",
"5. c #FBF4F1",
"6. c #FDF9F7",
"7. c #FEFDFC",
/* pixels */
"                                                                                                                            ",
"                                                                                                                            ",
"                                                                                                                            ",
"                                                                                                                            ",
"                                                                                                                            ",
"                                                                                                                            ",
"                                                                                                                            ",
"                                                                                                                            ",
"                                                                                                                            ",
"                                                                                                                            ",
"                                                            h k l k k k k l k k k k                                         ",
"                                                            v v v b v b v b v v v x                                         ",
"                                                            z v v v v v v v v v v z                                         ",
"                                                      % % d x v v @.#.#.#.#.#.#.#.#.l k k                                   ",
"                                                      f g g x v b $.%.%.%.%.%.%.%.$.b b v                                   ",
"                                                      f f g x v b $.%.%.%.%.%.%.%.$.b v x                                   ",
"                                                      f f g x v v $.%.%.%.%.%.%.%.$.#.#.#.j k k                             ",
"                                                      f f g x v b $.%.%.%.%.%.%.%.%.%.%.%.b v x                             ",
"                                                    X f f g v v b $.%.%.%.%.%.%.%.%.%.%.$.b v x                             ",
"                                                % % % #         d c n n $.%.%.$.%.%.%.%.%.#.#.@.l k k                       ",
"                                                f f f             z v v $.%.%.%.%.%.%.%.%.%.%.$.b b v                       ",
"                                                f f f             x v b $.%.%.%.%.%.%.%.%.%.%.$.b v v                       ",
"                                                f f f                 2 c n n n n n n n n n n n v v x                       ",
"                                                f f f                   z v v v v v v v v v v v v v v                       ",
"                                              X f g f                   z v b b b v v b v v v v v v v                       ",
"                                          % % % #                       h j j                                               ",
"                                          f f f                         1 f 1                                               ",
"                                          f f f                         f g f                                               ",
"                                          f f f                         f g f                                               ",
"                                          f f f                         f f f                                               ",
"                                          f f f                         f f f X                                             ",
"                              r r r r r r < M <                             # % % $                                         ",
"                              R E E E E I V V B                               f f f                                         ",
"                              R R W E E I D V N                               f f f                                         ",
"                        8 8 9 S S F ' ' ' [ [ ] m > ;                         f f f                                         ",
"                        a s p B V C O.O.+.+.O.| H V B                         f f f                                         ",
"                        i a s Z V G o.O.O.O. .} V V N                         f f f                                         ",
"                  @ @ 4 U Y Y D V G o.O.*.2.3.2.{ [ ) > > ;             e r r t t t > > :                                   ",
"                  7 7 w R E I V V G |  .-.6.7.5.*.O.o.H V B             R E E E E E D V V                                   ",
"                  7 7 q R W I V V G o.O.-.6.7.4.*.O.| G V N             L R E E E E Z V B o                                 ",
"                  7 7 0 E E E ! ! ~ J J ) :.,.,.+.O.X.~ ! A       5 8 8 A S S _ ' ' [ [ ) m > ;                             ",
"                  7 7 0 R E E E E I V V G }  . .O.O.X.W R Y       i s s Z V G | O.O.O.O.o.H V B                             ",
"                  7 7 0 R E E E R E D V G o.O.O.O.O.X.W E Y       u a s Z V C | O.O.o. .| C V B .                           ",
"                  7 7 0 T T U R W E ! ! ! J J J J J J W R R 4 @ 2 U Y Y Z V D | O.+.1.3.2...[ [ m ; :                       ",
"                  7 7 q a a s R E E R E E B V V V V B E E R q 7 e R E E D V C | O.&.5.7.6.;.O.O.G V V                       ",
"                  7 7 q a a s R E E E E I V V V V V D I E R q 7 q R E I D V G | O.*.4.7.6.-.O.o.G V V                       ",
"                      @ q w y T T T T T U L L L L L K - = = 7 7 q R E E ! ! ! J J ] :.<.,.*.O.o.^ ! P                       ",
"                        7 7 q a a a a a a a a i a a u       6 q q R E E R E E V V V }  . .o.O.o.Q E R                       ",
"                        7 7 0 i s a a a a a a a s s i       6 7 q R E E E E E Z V C | O.O.O.O.O./ E R                       ",
"                            O w w w w w w w w w 4 &         6 7 q p T T E E E ! ! ~ J J J J J J W E R                       ",
"                              7 7 7 7 7 7 7 7 7             7 7 8 i a s R E E E E E Z V V V V V I E R                       ",
"                              7 q 7 7 7 7 7 7 7             6 q 7 a a s R E R E E E D D C V V V I E E                       ",
"                                                                  w w y T T T T T T L L L L L K - = =                       ",
"                                                                  6 7 q i a a a a a i a a a a i                             ",
"                                                                  7 0 0 a a a a s a a s a a s a                             ",
"                                                                      2 w w w w w w w w w 4                                 ",
"                                                                        6 7 7 7 7 7 7 7 7                                   ",
"                                                                        7 7 7 7 q 7 q 7 7                                   ",
"                                                                                                                            ",
"                                                                                                                            ",
"                                                                                                                            ",
"                                                                                                                            "
};
