/* XPM */
static char *a8f9cb5e5e704b59c60bcd7ecc6f5348uIBkyjvJ2nE19DvV[] = {
/* columns rows colors chars-per-pixel */
"67 62 201 2 ",
"   c #010101",
".  c #0A0200",
"X  c #0D0A05",
"o  c #0B0B0B",
"O  c #070908",
"+  c #170500",
"@  c #180A00",
"#  c #190500",
"$  c #0F0F11",
"%  c #141414",
"&  c #1B1B1B",
"*  c #1A160A",
"=  c #2C0E01",
"-  c #370E00",
";  c #291400",
":  c #3A1502",
">  c #3D1808",
",  c #3C2300",
"<  c #3D3417",
"1  c #222222",
"2  c #2D2D2D",
"3  c #343434",
"4  c #3B3A3A",
"5  c #491800",
"6  c #5E2603",
"7  c #52240C",
"8  c #4E3900",
"9  c #533E05",
"0  c #583D10",
"q  c #442801",
"w  c #683601",
"e  c #5E4500",
"r  c #56400D",
"t  c #534102",
"y  c #5A4A17",
"u  c #634A04",
"i  c #624708",
"p  c #634F12",
"a  c #644F18",
"s  c #625012",
"d  c #6E5919",
"f  c #63521E",
"g  c #705916",
"h  c #705818",
"j  c #564922",
"k  c #5F5639",
"l  c #665625",
"z  c #464545",
"x  c #4A4A4A",
"c  c #494748",
"v  c #535353",
"b  c #5A5A5A",
"n  c #5D5A51",
"m  c #605F5B",
"M  c #6D574C",
"N  c #7A704D",
"B  c #6E664E",
"V  c #646464",
"C  c #6C6C6C",
"Z  c #696967",
"A  c #736D69",
"S  c #71706C",
"D  c #6D6E70",
"F  c #716F70",
"G  c #6F7170",
"H  c #717171",
"J  c #7B7B7B",
"K  c #767779",
"L  c #983D01",
"P  c #9C4001",
"I  c #91460D",
"U  c #974916",
"Y  c #8E460B",
"T  c #A0420D",
"R  c #AB5E00",
"E  c #B15E03",
"W  c #B05E08",
"Q  c #8E730F",
"!  c #926F1D",
"~  c #8D7311",
"^  c #84691A",
"/  c #B36800",
"(  c #AD6C1A",
")  c #954A21",
"_  c #8F5235",
"`  c #945430",
"'  c #847125",
"]  c #A96622",
"[  c #C17B00",
"{  c #867D5E",
"}  c #8C786F",
"|  c #807E7F",
" . c #9C8531",
".. c #AB8E26",
"X. c #AB8F2E",
"o. c #A78B3A",
"O. c #C68103",
"+. c #D29700",
"@. c #C18A2F",
"#. c #FDBF38",
"$. c #F8CF05",
"%. c #F6C60E",
"&. c #FBC70B",
"*. c #FDC80C",
"=. c #FBDA09",
"-. c #EFC31C",
";. c #F5C416",
":. c #FBC613",
">. c #F5C51A",
",. c #FDC518",
"<. c #FFD51B",
"1. c #FFEE06",
"2. c #FFEC0C",
"3. c #FFE70A",
"4. c #FFE813",
"5. c #EDC22A",
"6. c #FFC424",
"7. c #F5CA2D",
"8. c #F9CC2E",
"9. c #FAC525",
"0. c #F3D227",
"q. c #FFC233",
"w. c #F3C931",
"e. c #F3CC3B",
"r. c #F8CC33",
"t. c #F9D13B",
"y. c #FAD137",
"u. c #F9E629",
"i. c #F7EB26",
"p. c #9F8B4C",
"a. c #9A8D5C",
"s. c #968A58",
"d. c #8F856C",
"f. c #9B8E61",
"g. c #9F9562",
"h. c #908C7B",
"j. c #98927C",
"k. c #A29569",
"l. c #ADA370",
"z. c #C9AB4A",
"x. c #C8AA49",
"c. c #CEB35B",
"v. c #CDB655",
"b. c #DCBD5B",
"n. c #D8B64A",
"m. c #CFB667",
"M. c #D4C15A",
"N. c #F6CE4C",
"B. c #F6D144",
"V. c #F9D244",
"C. c #F5D04E",
"Z. c #EFCD52",
"A. c #F5CF51",
"S. c #FFCC5A",
"D. c #F4D153",
"F. c #F6D55C",
"G. c #FCD45D",
"H. c #EDCC6F",
"J. c #F8D968",
"K. c #F5D473",
"L. c #F5EB78",
"P. c #F9EE7C",
"I. c #858585",
"U. c #8D8D8D",
"Y. c #888886",
"T. c #908E8F",
"R. c #918E85",
"E. c #959384",
"W. c #8F8F91",
"Q. c #918F91",
"!. c #949493",
"~. c #999794",
"^. c #9A9A9A",
"/. c #99979A",
"(. c #A6A39A",
"). c #A3A3A3",
"_. c #AAAAAA",
"`. c #B3B3B3",
"'. c #BBBBBB",
"]. c #BCB4B1",
"[. c #B3ABA8",
"{. c #F9F4BC",
"}. c #C1BFC0",
"|. c #C5C5C5",
" X c #CCCCCC",
".X c #D2D1CD",
"XX c #D3D3D3",
"oX c #DFDFDF",
"OX c #D6D6D8",
"+X c #DEE0DF",
"@X c #FFFEC5",
"#X c #F0EFDB",
"$X c #E4E0D7",
"%X c #E2E2E2",
"&X c #EEEDED",
"*X c #F9F7E4",
"=X c #FBFAE6",
"-X c #F6F6F6",
";X c #F6F6F8",
":X c #FEFEFE",
">X c #F8F8F7",
/* pixels */
"-X-X-X-X-X-X-X-X-X>X-X-X>X-X-X-X;X-X-X-X-X-X;X-X>X-X-X-X-X-X-X-X-X-X-X-X-X-X-X-X-X-X-X>X-X>X;X-X-X-X-X-X-X-X;X-X-X-X>X-X-X-X-X-X-X-X-X",
"-X-X-X-X>X-X-X-X-X-X-X-X-X-X>X-X;X-X-X-X-X-X>X>X-X-X>X-X>X-X>X-X-X-X-X-X-X>X>X-X-X>X-X-X-X>X-X-X-X-X-X;X-X-X-X-X-X-X-X-X-X;X-X-X>X-X-X",
"-X-X-X-X-X-X-X-X-X-X>X-X-X-X-X-X-X;X-X-X-X-X-X-X-X-X-X-X-X-X-X-X-X-X-X-X-X-X-X-X-X-X-X-X-X-X-X>X;X-X-X-X-X>X-X-X>X-X-X-X-X-X-X-X-X-X>X",
">X-X>X-X-X>X-X>X-X-X-X-X>X-X-X-X;X;X-X-X-X-X-X-X-X-X>X-X-X>X>X-X>X-X-X;X-X-X;X-X-X>X-X-X-X-X-X-X-X-X-X-X-X-X>X-X-X-X>X-X>X-X-X>X-X-X-X",
"-X-X-X-X-X-X-X-X-X-X>X-X-X-X-X-X-X-X-X-X-X>X>X-X;X;X>X-X-X-X>X-X-X-X-X-X-X>X-X-X-X-X-X-X>X-X-X-X;X;X;X-X-X-X-X-X>X-X-X>X-X-X>X-X-X-X-X",
"-X-X>X-X-X>X-X-X-X-X-X-X-X-X>X-X-X-X-X-X-X>X>X-X-X;X-X&X-X&X&X-X-X&X-X-X-X&X-X&X-X-X-X-X-X-X-X-X;X-X-X-X-X-X-X-X-X-X-X-X-X-X-X-X-X-X-X",
">X-X-X-X-X-X-X>X-X>X-X-X>X-X-X-X-X-X-X-X-X-X-X-X:X:X:X:X:X:X:X:X:X:X:X:X:X:X:X:X:X>X-X-X>X-X-X>X>X-X-X-X-X-X-X-X-X-X-X-X-X-X;X-X;X>X-X",
"-X-X>X-X-X>X-X-X-X-X-X-X-X-X-X-X-X-X-X-X-X>X-X:X|.V C C C C C C C C C C C C C C C %X>X-X-X-X-X-X-X-X>X-X-X>X-X;X-X;X>X-X-X-X-X-X-X-X-X",
">X-X-X-X-X-X>X-X-X-X>X-X-X-X-X-X-X-X-X-X-X-X&X:X^.                                .X:X-X-X-X-X>X-X-X-X-X-X-X-X-X-X-X-X-X;X-X-X-X>X-X-X",
"-X-X-X-X>X-X-X-X-X-X;X-X-X-X-X-X-X-X&X-X&X-X&X:X(.  X . . X . . . . . X X . . X X .X>X&X-X-X&X-X&X-X-X-X-X-X-X-X-X-X-X-X-X-X-X-X-X-X-X",
"-X-X>X-X-X-X>X-X-X-X-X-X-X-X-X-X:X:X:X:X:X:X:X:X_.    . . . . . . .   . . .       $X:X:X:X:X:X:X:X:X-X-X-X-X-X-X-X>X-X>X-X>X>X-X-X-X-X",
"-X-X-X-X-X-X-X-X-X-X-X-X-X-X-X:X'.Y.U.T.U.U.U.E.{ l d d h d g g d d d g d h h d l d.R.U.U.U.U.U.Y.XX:X-X-X-X-X-X-X-X-X-X-X-X-X-X-X-X>X",
"-X-X-X-X-X-X-X-X-X-X-X-X-X>X&X:XV             . 9 K.C.V.V.V.V.V.V.V.B.V.V.V.V.D.K.@ .             (.:X-X;X-X-X-X-X-X-X-X-X-X-X-X-X-X;X",
"-X>X-X-X-X>X>X-X>X-X-X-X-X&X-X:XA   X   . . X . u Z.5.>.;.;.;.;.-.>.;.;.-.>.-.5.M., . O .   . X   ).:X&X&X-X-X-X-X;X-X-X-X>X-X;X-X-X-X",
"-X-X-X>X-X-X-X-X-X-X-X-X:X:X:X:XA . . .   . . . 9 J.e.7.8.t.t.t.y.t.t.e.y.t.t.C.K.: . . .   . . . [.:X:X:X:X-X-X-X-X-X>X>X-X-X-X>X-X-X",
"-X-X-X-X-X>X-X-X>X-X-X>X|._._.].M = > : q 0 9 8 ^ b.n.n.z.....................X.o.i 9 9 0 q : > = } ]._._.OX>X-X-X-X-X-X-X-X-X-X-X-X-X",
"-X>X-X-X>X-X-X-X-X-X-X:Xx     . 7 ` ) I @.J.V.F.b.p.s.g.N . . . . . . . . . . + + c.G.N.G.( I ) _ - .     Y.:X&X-X-X-X-X;X-X-X-X-X>X-X",
"-X-X-X-X-X-X>X-X-X-X&X:Xv   O + 6 U P L O.q.;.w.v.a.j.~.A                       + x.w.>.q./ P T ) 5 . O   U.:X-X-X-X-X-X-X-X-X-X-X-X-X",
"-X-X>X-X-X-X-X-X-X-X-X:Xv   O . 6 U P L O.6.%.7.v.s.h.T.Z                     . + z.r.,.q./ L L U 5 . .   Y.:X-X>X-X;X-X-X>X>X-X-X-X;X",
"-X-X-X-X>X-X-X-X-X-X-X:Xv     . w ( W E +.0.$.0.v.l.(._.I.% & & %             . + x.8.,.6.[ E W ] 5 . O   U.:X&X;X>X;X>X>X-X-X-X-X-X>X",
"-X-X;X-X-X-X;X-X-X-X-X:Xv   O . ! S.#.6.<.4.2.u.P.@X*X:X+XW.W.~.J               + z.8.*.,.,.q.q.S.0 . O   Y.:X-X-X-X>X-X-X-X-X-X-X-X-X",
"-X-X>X-X-X-X>X-X-X-X-X:Xv     . Q V.>.&.=.1.1.i.L.@X*X:XoXY.W.!.J               + z.r.*.*.:.:.9.A.u . O   U.:X&X-X-X-X-X-X;X-X-X-X-X-X",
"-X-X-X-X-X-X-X-X:X>X>X:Xv   O . Q t.;.*.=.2.1.i.P.@X*X:X+XW.W.~.J             . + x.8.&.*.*.&.9.N.e . .   U.:X-X:X>X>X-X-X-X-X-X-X>X-X",
"-X>X-X-X>X-X-X-X%X%XoX&Xx   O . Q t.;.$.=.4.3.u.L.{.#X-XOX| I.Y.C               + x.8.&.*.*.*.>.N.u   O   J -XoXoX&X>X-X;X-X>X-X-X-X-X",
"-X-X-X-X-X-X-X:Xz   $ o O     . Q t.;.*.$.$.$.0.v.g.E.^.H   o O O               + z.8.*.*.*.*.,.N.e .     O o $   K :X-X-X-X-X>X-X-X>X",
"-X-X-X>X-X-X-X:X3             . Q t.,.*.*.&.*.7.v.a.h.!.C                       + z.8.*.*.*.*.9.N.e . O           D :X&X-X-X>X-X-X-X-X",
"-X-X-X-X-X-X-X:X4             . ~ t.;.*.*.*.&.7.c.f.E.^.C                     . + z.8.*.*.*.*.>.C.e .         O   H :X-X-X-X-X-X-X-X-X",
"-X;X-X-X-X-X-X:X4             . ~ t.;.*.*.&.&.7.c.a.h.!.C                       + x.8.&.*.*.*.>.C.e               D :X-X>X-X-X-X>X;X-X",
"-X-X-X-X-X;X&X:X4             . ~ t.>.*.*.*.&.y.o.@ * % $                       + z.8.&.*.*.*.9.C.e .         O   H :X&X>X-X-X-X-X-X-X",
"-X>X-X-X-X>X-X:X4             . Q t.,.*.*.*.&.y. ..                             + z.8.&.*.*.*.>.C.e .             H :X-X-X-X-X-X-X>X-X",
"-X-X-X-X-X-X-X:X3             . Q t.,.*.*.*.&.y. .. .                         . + z.r.*.*.*.*.>.N.e .             F :X-X-X-X-X-X-X-X-X",
"-X-X>X-X-X-X-X:X4             . Q t.>.*.*.*.&.y. .. .                           + z.8.*.*.*.*.>.A.e   O           F :X&X-X-X-X>X-X-X-X",
"-X-X-X-X-X-X-X:X4             . Q t.>.*.*.*.&.y. .. .   2 }.'.'._.C C C V O     + z.r.&.*.*.*.>.D.e   .       O   C :X-X-X-X-X>X-X;X>X",
"-X-X-X-X-X-X-X:X4             . Q V.>.*.:.&.%.y. .. .   4 :X:X:X-X/.~./.Y.o     + z.r.%.*.:.&.>.C.e .             H :X&X-X-X-X>X-X-X-X",
"-X-X-X-X-X-X-X>X4         O O . ~ V.-.%.&.%.%.e. .. .   4 :X&X-X%XT.U.T.I.O   . + z.7.%.:.:.%.-.N.u   O       O   G :X-X-X-X;X-X-X-X-X",
">X-X-X-X-X-X-X:X4               ' J.D.V.B.V.V.J.p.. .   4 :X:X:X&XT.U.!.I.O     . m.F.B.V.V.B.D.K.t               G :X-X-X-X-X;X-X>X-X",
"-X>X-X-X-X-X-X:X3   O   C ).~.(.N y s s p s p l q       2 '.`.'.`.W.U.!.I.O     . j f p p p s s j k n b b 2   .   H :X-X-X-X-X-X-X-X-X",
"-X-X-X-X-X-X-X:X4   O   _.:X:X:XA .   .     .   O       1 U.Y.Y.Y.W.U.Q.Y.O           . .   .   . V (.!.).z   O   C :X&X-X-X-X-X>X-X-X",
"-X>X>X-X-X-X-X:X4   O   ).:X&X:XC   X X . X X . O   O   1 !.U.U.U.U.W.Q.I.o       O . . . . O X   m !.Y.!.4   o   H :X-X-X-X-X-X-X-X-X",
"-X-X-X-X-X-X-X:X2       _.:X:X:XC                       & ^.^.^./././.^.W.                        V ).!.).4       V :X-X-X-X-X-X-X-X-X",
"-X>X-X-X-X-X-X:X~.G J K J J J J J K J J J J J J K J K J C x c c c c x x z z z z z z z z z z z z z z c c z V J J G `.:X-X-X-X-X-X-X-X;X",
"-X-X-X-X-X>X-X-X:X:X:X:Xx       U.:X:X:X:X:X:X:X:X:X:X:X|.                !.^.^.^.^.^.^.^.^.^.~.).2       !.:X:X:X:X-X-X-X-X-X-X-X-X>X",
"-X-X-X-X-X-X-X-X-X-X&X:Xv   o   Y.:X&X-X&X-X-X-X-X-X&X:X'.  O O O   O   $ I.U.U.U.U.T.U.U.U.U.U.~.2   O   Y.:X&X-X-X-X-X-X-X-X-X-X-X-X",
"-X>X-X>X-X-X-X-X-X-X-X:Xv   O   U.:X>X:X>X-X-X-X>X>X-X:X'.                I.!.U.U.W.W.T.W.U.U.U.^.2   O   U.:X-X-X-X-X-X-X-X-X-X>X-X-X",
">X-X-X-X-X-X-X-X-X-X&X:Xv   O   K +X.X X%X>X>X>X>X>X-X:XXXv b b v 3 3 2 4 Y.!.U.U.U.U.U.U.!.W.U.^.2   O   U.:X&X-X>X-X-X-X-X-X-X>X-X-X",
"-X-X-X-X-X-X-X-X-X-X-X:Xv   O   x !.Y.I.'.:X-X>X>X-X>X-X:X:X:X:X-X/.^.^.^.W.U.T.U.U.!.U.U.U.W.U./.2   O   Y.:X-X-X-X-X-X-X-X>X>X-X-X-X",
"-X-X>X-X-X-X-X-X-X-X-X:Xv   O   v /.U.Y.'.:X-X-X-X-X-X-X-X-X-X-X%XU.U.U.U.W.U.U.!.U.U.U.W.U.U.U.~.2   O   U.:X-X-X-X>X-X-X-X-X-X-X;X-X",
"-X-X-X-X-X-X>X-X-X-X-X:Xx       x ).~.U.|.:X:X:X:X:X:X>X:X>X:X:X&X!.T.T.W.W.T.T.U.!.^.!.~.~.!.!.^.2       Y.:X&X>X>X-X>X-X-X>X-X-X-X-X",
"-X-X-X-X-X-X-X>X-X-X-X:XK 2 4 4 v H C Z !.|.'.'.|.oXoXoXoXoXoX+XXXU.U.T.T.W.W.U.U.H C C C C D C G x 4 4 2 _.:X-X-X-X-X-X-X-X-X-X-X-X-X",
">X-X-X-X-X-X;X-X-X-X-X-X:X:X>X:XC               2 !.U.Y.U.U.Y.U.U.!.W.T.T.U.U.W.U.$               _.:X:X:X>X-X-X-X-X-X-X-X-X-X-X-X-X>X",
"-X-X-X>X-X>X-X-X-X>X-X-X-X-X&X:XC   O       O   3 /.U.U.W.U.U.W.U.U.U.U.T.U.U.U.U.&           O   _.:X-X-X-X-X-X-X-X-X-X-X-X-X-X>X-X-X",
"-X-X-X-X-X-X-X-X-X-X;X-X-X-X-X:XZ               2 ^.!.!.!.!.!.~.!.!.!.!.!.!.!.~.!.o               ).:X&X>X-X-X>X-X-X-X-X-X-X>X-X-X-X-X",
"-X>X-X-X>X-X-X>X>X-X-X-X-X-X-X:X| % 1 1 & 1 1 & 4 Y.J J J J J J J J J J J J J J J 2 & 1 1 1 & 1 % _.:X-X-X-X-X-X>X-X-X-X>X-X>X-X>X-X-X",
"-X-X-X-X-X-X-X-X-X-X-X-X-X-X-X-X-X&X-X&X-X-X&X:X).  O   O             O     O   O  X-X-X-X&X-X&X-X>X-X-X-X-X-X>X-X-X-X-X-X-X-X-X;X-X-X",
"-X-X>X-X-X-X>X-X-X-X-X-X-X-X-X-X-X>X-X-X-X-X-X:X).                                XX:X-X-X-X-X>X-X-X-X-X-X-X-X-X-X-X>X-X-X>X-X>X-X-X>X",
"-X-X-X-X-X;X-X-X-X-X-X-X-X-X-X-X-X-X-X-X-X-X&X:X).                                XX:X-X-X-X-X-X-X-X-X-X-X-X-X>X-X-X-X-X-X-X-X-X-X-X-X",
"-X-X-X-X-X-X-X>X-X-X-X-X>X-X>X-X-X-X>X-X-X-X-X:X_.  o o o o O O O o o o o o o o $ OX:X-X-X-X-X>X-X-X>X;X-X-X-X-X-X-X-X-X-X-X-X-X-X-X-X",
">X-X-X>X-X-X-X-X-X>X-X-X-X-X-X-X-X-X-X-X>X-X-X>X&XoXoXoXoXoXoXoXoX%XoX+X%XoX%XoXoX&X>X>X-X-X-X-X-X-X-X-X-X-X>X;X-X>X-X-X>X-X-X-X-X-X-X",
"-X-X-X-X>X-X-X-X-X>X-X>X-X-X-X>X-X-X-X-X-X-X-X>X>X:X:X:X:X:X:X:X:X>X:X>X>X:X:X>X:X-X-X-X-X-X-X-X-X-X-X-X-X-X-X-X-X-X-X-X-X-X>X-X-X>X-X",
"-X-X-X-X-X-X-X-X-X-X-X-X>X-X-X-X-X-X-X-X-X-X-X-X-X-X-X&X-X-X-X-X-X-X-X-X-X-X-X-X-X-X-X>X-X-X-X>X-X>X-X-X-X>X-X-X-X-X>X-X-X-X-X-X-X-X-X",
"-X>X-X-X-X-X-X-X>X-X-X-X-X-X-X-X-X-X-X>X-X-X-X-X-X-X-X-X-X-X-X-X-X>X-X-X>X-X>X-X-X-X-X;X-X-X-X-X-X-X-X>X-X-X-X-X-X-X-X-X>X-X-X-X-X;X>X",
"-X-X-X-X-X-X>X-X-X-X-X-X-X-X-X>X-X-X>X-X-X-X-X-X-X-X-X-X>X-X-X-X-X-X-X>X-X-X-X-X>X-X-X-X;X-X-X-X-X-X-X-X-X-X-X>X>X-X-X-X-X-X>X-X-X-X-X"
};
