/* XPM */
static char *dbpjzu6_38e6fcd1_b361_4aa3_a3f1_bbbf17d602bc1675628480[] = {
/* columns rows colors chars-per-pixel */
"63 62 132 2 ",
"   c None",
".  c black",
"X  c #010101",
"o  c #040101",
"O  c #070201",
"+  c #050505",
"@  c #080201",
"#  c #0F0403",
"$  c #080808",
"%  c #0A0A0A",
"&  c #0E0E0E",
"*  c #0F0F0F",
"=  c #160604",
"-  c #1C0705",
";  c #1D0805",
":  c #101010",
">  c #111111",
",  c #141414",
"<  c #161616",
"1  c #171717",
"2  c #181818",
"3  c #191919",
"4  c #1A1A1A",
"5  c #1C1C1C",
"6  c #1D1D1D",
"7  c #1E1E1E",
"8  c #1F1F1F",
"9  c #210905",
"0  c #300D08",
"q  c #310D08",
"w  c #340E09",
"e  c #390F0A",
"r  c #212121",
"t  c #222222",
"y  c #232323",
"u  c #292929",
"i  c #2A2A2A",
"p  c #2F2F2F",
"a  c #303030",
"s  c #343434",
"d  c #3A3A3A",
"f  c #3E3E3E",
"g  c #49140C",
"h  c #4C140D",
"j  c #4F150D",
"k  c #57170E",
"l  c #58170F",
"z  c #5C190F",
"x  c #601A10",
"c  c #621A10",
"v  c #631A10",
"b  c #661B11",
"n  c #671B11",
"m  c #661F16",
"M  c #772014",
"N  c #494949",
"B  c #4A4A4A",
"V  c #4D4D4D",
"C  c #585858",
"Z  c #5D5D5D",
"A  c #5E5E5E",
"S  c #606060",
"D  c #636363",
"F  c #666666",
"G  c #7A7A7C",
"H  c #802215",
"J  c #99291A",
"K  c #A42C1B",
"L  c #A52C1B",
"P  c #AD2E1D",
"I  c #AF2F1D",
"U  c #B4301E",
"Y  c #B5301E",
"T  c #A53224",
"R  c #BD3220",
"E  c #BF3320",
"W  c #D13823",
"Q  c #E13C25",
"!  c #E83E27",
"~  c #EE3F28",
"^  c #B54134",
"/  c #F04028",
"(  c #F04934",
")  c #F05645",
"_  c #F06052",
"`  c #F06154",
"'  c #F07670",
"]  c #818181",
"[  c #838383",
"{  c #868686",
"}  c #8A8A8A",
"|  c #8E8E8E",
" . c #96969C",
".. c gray60",
"X. c #9A9A9A",
"o. c #A2A2A2",
"O. c #A2A2A5",
"+. c #A5A5A5",
"@. c #B5B5B5",
"#. c #B5B5BC",
"$. c #BEBEBE",
"%. c #F08280",
"&. c #F08888",
"*. c #C3C3C7",
"=. c #CCCCCC",
"-. c #CDCDCD",
";. c #C9C9D0",
":. c #D1D1D1",
">. c #D2D2D2",
",. c #D0D0D6",
"<. c #D0D0D8",
"1. c #D1D1D9",
"2. c #D3D3DA",
"3. c #D4D4DB",
"4. c #D6D6DC",
"5. c #D8D8DE",
"6. c #DADADF",
"7. c #DCDCE1",
"8. c #DFDFE4",
"9. c #E0E0E0",
"0. c #E0E0E4",
"q. c #E1E1E5",
"w. c #E2E2E6",
"e. c #E4E4E7",
"r. c #E6E6E9",
"t. c #E9E9EB",
"y. c #EBEBED",
"u. c #ECECED",
"i. c #EEEEEF",
"p. c #F0F0F0",
"a. c #F1F1F1",
"s. c white",
/* pixels */
"                                                                                                                              ",
"                                                                                                                              ",
"                                                                                                                              ",
"                                                                                                                              ",
"                                                                                                                              ",
"                                                                                                                              ",
"                                                                                                                              ",
"                                                                                                                              ",
"                                                                                                                              ",
"                                                                                                                              ",
"                                                                                                                              ",
"                                                                                                                              ",
"                                                                                                                              ",
"                                                                                                                              ",
"                                                                                                                              ",
"                                                                                                                              ",
"                                                                                                                              ",
"                                                                                                                              ",
"                                                                                                                              ",
"                                                                                                                              ",
"                                                                                                                              ",
"                                                                                                                              ",
"                                                                b h 0 ; @ @ - w h c                                           ",
"                                                            l 0 g H P W ! ! W P H g 0 l                                       ",
"                                                          e m ^ _ _ ) ( / / / / / / Y n e                                     ",
"                                                      z 9 T ` ' %.%.' ` ( / / / / / / / L 9 z                                 ",
"                                                    z = R ) ' &.&.&.&.' ) / / / / / / / / R = z                               ",
"                                                    9 R / _ %.&.&.&.&.%._ / / / / / / / / / R 9                               ",
"                                                  e L / / _ %.&.&.&.&.%._ / / / / / / / / / / L e                             ",
"                                                l b / / / ) ' &.&.&.&.' ) / / / / / / / / / / / n l                           ",
"                                                0 Y / / / ( ` ' %.%.' ` ( / / / / / / / / / / / Y 0                           ",
"                                              c g / / / / / ( ) _ _ ) ( / / / / / / / / / / / / / g b                         ",
"                                              h H / / / / / / / / / / / / / / / / / / / / / / / / H h                         ",
"                                              w P / / / / / / / / / / / / / / / / / / / / / / / / P w                         ",
"                                              o P / / / / / / / / / / / / / / / / / / / / / / / / P o                         ",
"                                              . 0 / / / / / / / / / / / / / / / / / / / / / / / / 0 .                         ",
"                                              . . n R / / / / / / / Y c - - c U / / / / / / / Y n . .                         ",
"                                              * % 7 0 b L Q / / / Y 0 ..9.9...0 R / / / Q K b w 7 % *                         ",
"                                              p N 7 r 7 h # h M J g ..s.....s...g J M h = h 8 r 1 N p                         ",
"                                              V Z [ i 7 y i r 5 k @ 9...s.s...9.. k 3 r u r 1 p } Z V                         ",
"                                                . a.>.| V * 1 3 7 + 8...s.s...9.+ 8 3 1 * V [ >.a..                           ",
"                                                a @.a.a.a.-.o.N 7 : ..s.....s...1 : f ..=.a.a.a.@.a                           ",
"                                                C F a.a.a.a.a.a.a.@.p ..9.9...a @.a.a.a.a.a.a.a.F C                           ",
"                                                  d +.a.a.a.a.a.a.a.@.S 7 7 S @.a.a.a.a.a.a.a.+.d                             ",
"                                                    r $.a.a.a.a.a.a.a.a.a.a.u.t.r.w.w.w.w.w.$.8                               ",
"                                                    Z 1 $.a.a.a.a.a.a.i.t.w.w.8.w.0.8.w.w.$.1 Z                               ",
"                                                      Z r +.a.a.a.a.y.e.w.8.8.7.5.4.3.1.+.r Z                                 ",
"                                                          d F @.a.i.w.9.8.7.1.<.<.<.@.F d                                     ",
"                                                            C a N G O.*.;.;.#. .] N a C                                       ",
"                                                                D V s 7 % % 7 s V D                                           ",
"                                                                                                                              ",
"                                                                                                                              ",
"                                                                                                                              ",
"                                                                                                                              ",
"                                                                                                                              ",
"                                                                                                                              ",
"                                                                                                                              ",
"                                                                                                                              ",
"                                                                                                                              ",
"                                                                                                                              ",
"                                                                                                                              ",
"                                                                                                                              "
};
