/* XPM */
static char *_f75b4fe412e4d2ad7874f32663d5d1f2KIrTXHTlbgThuc2[] = {
/* columns rows colors chars-per-pixel */
"62 62 256 2 ",
"   c black",
".  c #211718",
"X  c #391E18",
"o  c #3A2026",
"O  c #1E2129",
"+  c #212334",
"@  c #112420",
"#  c #372437",
"$  c #242518",
"%  c #46271F",
"&  c #54272B",
"*  c #2C282B",
"=  c #2C2A33",
"-  c #612A2F",
";  c #4A2B33",
":  c #1C2C39",
">  c #2B2C3B",
",  c #342C36",
"<  c #352C21",
"1  c #222D2A",
"2  c #242D37",
"3  c #3B2E3A",
"4  c #442E50",
"5  c #292F47",
"6  c #452F3D",
"7  c #682F19",
"8  c #38304F",
"9  c #38312B",
"0  c #363243",
"q  c #433244",
"w  c #33333A",
"e  c #89330F",
"r  c #4D344A",
"t  c #64343E",
"y  c #443529",
"u  c #433661",
"i  c #863A30",
"p  c #343B47",
"a  c #383B3A",
"s  c #3C3B41",
"d  c #433C49",
"f  c #4C3C4B",
"g  c #2B3E47",
"h  c #3C3E4B",
"j  c #843E42",
"k  c #393F5B",
"l  c #474153",
"z  c #82414E",
"x  c #46423B",
"c  c #364676",
"v  c #634945",
"b  c #314B5A",
"n  c #414B55",
"m  c #864B51",
"M  c #5E4C5E",
"N  c #8C4C41",
"B  c #7F4D5D",
"V  c #A14D20",
"C  c #37506E",
"Z  c #4E5157",
"A  c #9B5237",
"S  c #41545D",
"D  c #48596D",
"F  c #4D5963",
"G  c #A15A76",
"H  c #4D5F85",
"J  c #795F60",
"K  c #5B6275",
"L  c #B26242",
"P  c #65634D",
"I  c #C8648D",
"U  c #6A656C",
"Y  c #786574",
"T  c #8B6551",
"R  c #536A72",
"E  c #6B6A6C",
"W  c #AF6D4B",
"Q  c #546E90",
"!  c #B36E8C",
"~  c #746F77",
"^  c #BE6F93",
"/  c #B57060",
"(  c #B97083",
")  c #CF7192",
"_  c #D2739E",
"`  c #69788B",
"'  c #CE794F",
"]  c #757A98",
"[  c #787A86",
"{  c #8F7A5F",
"}  c #A47A96",
"|  c #837B79",
" . c #C17D93",
".. c #8F7E8D",
"X. c #847F86",
"o. c #D17F5E",
"O. c #AE82A0",
"+. c #5E8389",
"@. c #7C8388",
"#. c #938477",
"$. c #B48467",
"%. c #5585A2",
"&. c #BF87A6",
"*. c #528ABF",
"=. c #538AAF",
"-. c #9E8A88",
";. c #A68B5E",
":. c #688C99",
">. c #8B8C92",
",. c #9F8DA7",
"<. c #5B8E9C",
"1. c #6791A7",
"2. c #799299",
"3. c #8392A7",
"4. c #7393A8",
"5. c #889396",
"6. c #949395",
"7. c #5394C4",
"8. c #5795AD",
"9. c #6195BE",
"0. c #6A95B5",
"q. c #7D9784",
"w. c #AB986B",
"e. c #5D99CC",
"r. c #709ABE",
"t. c #B59BA5",
"y. c #869CA8",
"u. c #8C9FB7",
"i. c #8EA086",
"p. c #9EA0A9",
"a. c #A4A077",
"s. c #CDA34A",
"d. c #89A4AD",
"f. c #94A4AD",
"g. c #B9A45F",
"h. c #D4A65F",
"j. c #98A89B",
"k. c #ADA87F",
"l. c #CEA856",
"z. c #C7A96E",
"x. c #CBA962",
"c. c #BBAA6E",
"v. c #C3AA60",
"b. c #9EACB9",
"n. c #B9AC7F",
"m. c #8AAFB4",
"M. c #98AFAA",
"N. c #94B0B7",
"B. c #B6B092",
"V. c #70B2CB",
"C. c #7DB2B9",
"Z. c #7CB3CE",
"A. c #C2B47B",
"S. c #B4B580",
"D. c #CEB580",
"F. c #B8B6BE",
"G. c #93B7E5",
"H. c #94B7C9",
"J. c #CEB76E",
"K. c #DAB760",
"L. c #80BBE1",
"P. c #CFBC8C",
"I. c #ACC4AE",
"U. c #88C5DD",
"Y. c #CFC695",
"T. c #DCC9E4",
"R. c #D5CBD8",
"E. c #A9CCD4",
"W. c #CECDAE",
"Q. c #EECDCA",
"!. c #C3CED0",
"~. c #CBCED7",
"^. c #CACFC7",
"/. c #A0D0E6",
"(. c #D9D0CB",
"). c #B8D1D1",
"_. c #CBD1E5",
"`. c #BDD2B6",
"'. c #D9D3D8",
"]. c #EAD381",
"[. c #EBD5D5",
"{. c #9DD6D1",
"}. c #CEDAC9",
"|. c #D3DAE7",
" X c #DBDAE5",
".X c #E4DAE4",
"XX c #B2DBD7",
"oX c #BCDBE7",
"OX c #BDDBDA",
"+X c #DCDBA7",
"@X c #E5DBDD",
"#X c #B3DDEB",
"$X c #C7DDE8",
"%X c #EBDDE9",
"&X c #ECDEF5",
"*X c #CADFD7",
"=X c #D3E0BC",
"-X c #B4E1E5",
";X c #D7E2D8",
":X c #ADE3E5",
">X c #BBE3F3",
",X c #A4E4F3",
"<X c #BBE4EC",
"1X c #C3E4E4",
"2X c #DCE4C6",
"3X c #E9E4E9",
"4X c #FAE49A",
"5X c #AAE5FD",
"6X c #ADE5EC",
"7X c #B4E5EC",
"8X c #B4E5F3",
"9X c #BBE5E6",
"0X c #C3E5EB",
"qX c #A4E6EC",
"wX c #B2E6DB",
"eX c #CDE6C7",
"rX c #B3E7FA",
"tX c #BFE7DE",
"yX c #C1E7D0",
"uX c #D7E7E9",
"iX c #ADE8F4",
"pX c #CBE8F3",
"aX c #CCE8EA",
"sX c #B2E9EB",
"dX c #B4EAF4",
"fX c #D5EAF8",
"gX c #E4EAED",
"hX c #EBEAAB",
"jX c #BBEBEC",
"kX c #C4EBF5",
"lX c #A9ECFC",
"zX c #EFECF0",
"xX c #BCEDF3",
"cX c #CDEDFB",
"vX c #B3EEFD",
"bX c #BCEFFD",
"nX c #EAF2F2",
"mX c #F3F2B0",
"MX c #CBF3FA",
"NX c #F5F3FB",
"BX c #FBF3F4",
"VX c #FDF3AA",
"CX c #F5F4F4",
"ZX c #D6F5FB",
"AX c #E7F5C9",
"SX c #EFF5BE",
"DX c #FDF5FB",
"FX c #C3F6F9",
"GX c #FDF8B4",
"HX c #EAFAFD",
"JX c #E8FCEF",
"KX c #F4FCF4",
"LX c #FCFDF4",
"PX c #F4FEFC",
"IX c white",
"UX c None",
/* pixels */
"IXIXIXIXIXIXIXIXIXIXIXIXIXIXIXIXIXIXIXIXIXIXIXIXLXCXIXIXIXIXIXIXIXIXIXIXIXIXIXIXIXIXIXIXIXDXIXIXIXBXzXIXIXIXIXIXIXIXIXIXIXIX",
"IXIXIXIXIXIXIXIXIXIXIXIXIXIXIXIXIXIXIXIXIXIXIXIXCXLXIX@X@X.X3X3X%X.X%X3X%X%X%X%X%X%X%X%X3X'.3X'.3XIXDXIXIXIXIXIXIXIXIXIXIXIX",
"IXIXIXIXIXIXIXIXIXIXIXIXIXIXIXIXIXIXIXIXIXIXLXIXBXIXzX>.* , 3 3 3 3 3 3 3 3 3 3 3 3 3 3 s = a * ~ DXIXDXIXIXIXIXIXIXIXIXIXIX",
"IXIXIXIXIXIXIXIXIXIXIXIXIXIXIXIXIXIXIXIXBXIXIXIXCXCXCX6.= d f d 0 d d d d d d d d d d d s h n = >.IXCXIXIXIXIXIXIXIXIXIXIXIX",
"IXIXIXIXIXIXIXIXIXIXIXIXIXIXIXIXIXIXIXIXIX3XIX3XIXIXIX5.O 2 > > 2 > > > > > > > > > > > p > O O >.IXIXIXIXIXIXIXIXIXCXCXIXIX",
"IXIXIXIXIXIXIXIXIXIXIXIXIXIXIXIXIXIXIXIXIXIXIXIXX.@.[ 5.d.d.d.d.d.d.d.d.d.d.d.d.d.d.d.d.2.N.N.f.5.[ @.[ zXIXIXIXBXIXCXIXIXIX",
"IXIXIXIXIXIXIXIXIXIXIXIXIXIXIXIXIXIXIXIXDXCXIXnXO O 2 y.ZXMXkXMXMXkXkXMXkXkXkXkXkXkXkXpXpXZXpXZXy.+ 2 = zXIXzXIXIXIXCXCXIXIX",
"IXIXIXIXIXIXIXIXIXIXIXIXIXIXIXIXIXIXIXIXIXIXIXgX2 n 2 2.kX7X:X7X7X:X:X7X:X:X:X:X:X:X:X-X<X7XE.cXd.: g p  XIXIXIXIXIXDXIXIXIX",
"IXIXIXIXIXIXIXIXIXIXIXIXIXIXIXIXIXIXIXIX3X3XnX|.S F g d.kXsX7XsXsX7X7XsXsXsXsXsXsXsXsX7X:XxXxXkXd.b n h ~.zX3XzXIXNXDXIXIXIX",
"IXIXIXIXIXIXIXIXIXIXIXIXIXIXIXIXIXIXIXIX6.O p n $X$X$XpX<X7X7X7X7X7X7X7X7X7X7X7X7X7X7X7X6X6X7XxX<X0XfXfXn p = ~ NXIXIXDXIXIX",
"IXIXIXIXIXIXIXIXIXIXIXIXIXIXIXIXIXIXIXPX@.= h n $XpXoXoX7X7X7X7X7X7X7X7X7X7X7X7X8X8X8X8XvXiXdX7X#X<XoX$XF p > @.IXzXDXIXIXIX",
"IXIXIXIXIXIXIXIXIXIXIXIXDXIXIXBXIXIXIXIX@.@ : g kX:X7XxXsX6X6X7X8X7X7X7X7XsXsXsX7X8X8X8XiXvX8X8XdXsX7X0Xb : @ [ NXIXIXIXPXPX",
"IXIXIXIXIXIXIXIXIXIXIXIXIXIXDXBXzXX.X.[ f.f.3.d.bXsX7X:XsXsXsXdX>X8X7X7XsXsXsXsX7X8X8X8XrXrX#X#XsXsXxXkXy.y.y.y.[ ....zXPXPX",
"IXIXIXIXIXIXIXIXIXIXIXIXIXIXBXIX3X* a O 5.HXfXcX<X:XjXjX-X7X7X7X8X>X8X7X7XsXsXsX7X8X8X8X8X>X>X0XjX-X<X<XfXfXZXN.+ , * '.IXIX",
"IXIXIXIXIXIXIXIXIXIXIXIXCXIXIXIXzX* d O 3.fX$X-X0X9X0XE.wX9X<X7X7X7X7X7X7XsXsXsX7X8X8X8X7X-X0X$X9X-X<X0XoXoXkXm.+ d 3 3XIXIX",
"IXIXIXIXIXIXIXIXIXIXIXIXCXIXIXIX3Xa l > p.pXpXoX).OXXXaX1XaX0X<XoX<X7X7X7X7XsX7X7X8X8X>X<XE.$X).XXOXOX0X0X<XMXN.0 q , '.DXIX",
"IXIXIXIXIXIXIXIXIXIXIXIXIXCXDXIX.Xw 0 > y.pXpXE.g 2 @ i.JXHXZXpX<X<X>X7X7X7X7X7X7X7X8X<X0XS 1 @ q.HXPXHXoX-XjXm.h q d .XDXIX",
"IXIXIXIXIXIXIXIXIXIXIXIXIXIXIXIX3Xw 0 > u.fXoX).1 a @ j.PXPXHXfX0X<X>X7X7X7X7X7X7X7X8X<X).a a $ @.nXnXHXZX9XxXd.0 q 3 '.DXIX",
"IXIXIXIXIXIXIXIXIXIXIXIXKXIXIXIX3Xw l > 3.ZXoX).* 9 $ j.IXIXHXuXoXoX>X7X7X7X7X7X7X7X8X<XuXa a . | IXCXIX1XwXFXm.> f # 3XDXIX",
"IXIXIXIXIXIXIXIXIXIXIXIXIXIXIXIXgXw l > 3.cX9XOX9 % < P 6.>.>.aX0X-XxX7X7X7X7X7X7X7X7X<X*Xa < < v -.-.>.).jXxXm.> r 3 .XIXIX",
"IXIXIXIXIXIXIXIXIXIXIXIXIXIXIXIXgXw l > f.cXXX).; & X y . . a !.aX<X8XxX8X7X7X<X7X7X7X9X*Xx 9 < X o X * ).9XxXm.> r 3 .XIXCX",
"IXIXIXIXIXIXIXIXIXIXIXIXIXIXIXIXgXw f # y.cX<X!.; & % % y 9 x *X0X7X6XdX8X7X7X<X<X7X7X9X*Xx < y & % & ; ).9XxXm.> f 3 .XIXnX",
"IXIXIXIXIXIXIXIXIXIXIXIXIXIXIXIXgXw r # y.MXkX!.; - - % % y x *X1XkX7X6X8X8X<X<X<X7X7X9X;Xx $ o & - t t !.9XxXm.> f 3  XIXPX",
"IXIXIXIXIXIXIXIXIXIXIXIXIXIXIXIXgXw r # y.0X9X|.G ^  .J X X a !.oXxXdXdX8X8X<X<X<X7X7X9X*Xx ; ; m ( I ! ~.0XxXm.> f ,  XKXIX",
"IXIXIXIXIXIXIXIXIXIXIXIXIXIXIXIXgXw r # f.kX-X|.^ )  .t & % x ~.1X7X6XvX8X8X<X<X<X<X7X9X*Xa 9 o z ) ) ^ R.aXxXm.> f ,  XIXIX",
"IXIXIXIXIXIXIXIXIXIXIXIXIXIXIXIXgXw r # y.pX<X|.^ I  .B X X x ~.aX7X6XiXiX8X<X<X<X<X7X9X*Xs * o z ) ) ! R.aXxXm.> f w  XnXIX",
"IXIXIXIXIXIXIXIXIXIXIXIXIXIXIXIXgXw f # y.MX9X~.^ I _ G m m J !.9X:XvXiXiX8X8X>X<X<X7X9X|.U M B G ) _ ! R.0XxXm.> f w  XIXIX",
"IXIXIXIXIXIXIXIXIXIXIXIXLXIXDXIXuXw x 9 d.pX9X~.^ I _ _ _ _ }  X<X:XqXiXiXiXrX8X8X7X<X1X|.,.} &._ I I  .~.0XFXm.2 d , @XLXLX",
"IXIXIXIXIXIXIXIXIXIXIXIXLXIXDXDX3Xw x = y.MX<X_.O.^ ^ _ I ^ } |.<XsXiXdX6X8X8X8X8X7X9X1X X,...} ^ ^ ^ } _.<XxXd.> d 6 [.zXBX",
"IXIXIXIXIXIXIXIXIXIXIXIXIXIXDXDX%X6 f > d.FX,X/.p.O.} O.O.O.,._.oX-X-XwX9X9X0X$X0X9XtXtX~.p.>.>.O.&.O.,.oXiXFXd.0 q 6 .XIXIX",
"IXIXIXIXIXIXIXIXIXIXIXIXIXIXDXDX%X6 f 5 Q r.8.r.E._.~. X_._.oXfXoX9X9XwXtX1X$X$X$X9XwXwXuX).OXOXR.T.T._.7X6XFXm.0 r # .XgXHX",
"IXIXIXIXIXIXIXIXIXPXPXPXPXIXBXDX%Xr u 5 Q 1.%.8.vXbXoXoXkXkX0XpXoX<XjXsX7X<X1X$X1X9X:X:X7X-XxXxX$X$X$XpX7X:XkXy.= M # zXHXPX",
"IXIXIXIXIXIXIXPXPXPXPXPXIXIXCXIX&X4 u 5 K 2.2.4.lXlXiXbXiX6X-X<X-X7X8XiX5X8X<X9X9X7X6X,XiX,X,XqX7XkX$X0XZXMXZXf.= 3 O ~.PXPX",
"IXIXIXIXIXIXIXIXIXIXIXIXLXLXJXIX&X8 u 0 J #.-.6.H.U.L.5XvX6XjXjXjXbXvX5XlXlXiXsXsX6XlXlXlXlXlX,XiXxXoX1X5.5.>.5.X.>.5.nXPXBX",
"IXIXIXIXIXIXIXIXIXIXIXIXLXLXJXPX&X4 l 3 T $./ #.+.8.=.L.vXqX7X-X7X8X5X5X5XlX6X:X:X6XiX5XlXlXbXrXdXdX-XaXd , . | KXPXPXPXLXLX",
"IXIXIXIXIXzXIXDXDXIXBXIXLXLXKXJX3X6 ; % A o.L $.@.1.=.G.vXrXiX8XdX8X8X7X7X-XwXwXwXwX9X<XtX1X$X$X<X6X>XaXM 6 ; | JXJXJXJXLXLX",
"KXCXBXIXzXIXDXBXIXIXDXDXDXCXKXLXQ.- % 7 V ' ' / 6.1.r.G.rX5X5X5X5X7X1X;XeXeXeXeXeX*X;X;X=XeX2XuX0X#XrXkXM r 6 X.JXJXJXLXLXLX",
"IXIXIXIXDXDX..f f f l Z l Z Z v N / W W V V V N '.oX>XG.9.9.e.e.9.4.i.S.c.c.S.S.B.B.n.n.c.J.A.B.M.1.8.0.u u 0 ..PXJXIXCXKXKX",
"IXCXDXDXDXDXU O 0 0 d 8 8 h w % 7 o.' ' V e i N 3XuXfXH.=.7.7.7.=.:.i.A.v.l.x.z.z.z.z.x.l.x.z.B.j.<.8.9.c u 8 X.HXuXLXCXJXPX",
"CXCXIXIXIXDX~ 2 5 2 2 + 5 5 > y 7 o.' ' A i A m [.~.uXH.%.=.7.*.=.:.i.S.v.l.l.h.h.h.h.h.s.v.c.B.2.<.8.=.c 5 + [ HXIXIXIXJXJX",
"IXIXCXp.F.b.>.` ` ` :.2.` ` ` ~ { W L L N i i z [.3XuXE.Z.Z.Z.Z.V.C.N.I.Y.D.h.h.h.h.h.x.v.D.Y.I.N.C.Z.Z.<.Q ` >.b.F.p.zXIXKX",
"DXIXF.O + 5 b.ZXcXMX>X>XfXpXMXZX(.- 7 i j j j m Q.(.uX$XkXxXxXdXlXlXvXFXaXW.D.h.h.h.x.c.n.W.eXtXsXdXbXbXFXZXHXp.= O 2 |.CXLX",
"CXIX'.2 n : b.fX-X>X6XbX<XjX6XE.R.v N i j j j m [.(.uXkX0XoXwX-XiXlX5X5XpX^.D.x.l.h.z.n.B.}.tX9X:X6XxX:X-XXXaXj.w Z 5 fXLXBX",
"IXIX'.= l 2 b.cX>XbX,XbXdX6XiXkX^.v i i j j t J (.gXpXkX9X9X9X9X7XdX8X7X*XW.D.x.l.l.v.c.B.`.yXwXwXsX7XxX:XXXpXb.0 0 p |.IXIX",
"IXIX'.= h 2 b.cX8X/.9.9.8.0.0.4.>.t j i  .Q.(.F.f.2.4./.xX<X-X-X7XdXdX9X*X2XhX4X4X4X4XhX=XeXyXwXwX7X7X7XbX6X0Xf.+ l >  XIXIX",
"IXIX'.= h 5 N.cXbX/.8.=.9.9.9.1.[ v m j t.BXuX$X:.1.=.L.vXiX6X6X7X8X6X:XOXeXSXGXVXVXGXSXAXeXwXwXsXxX>X8XqX{.9XM.* M o %XIXIX",
"IXIX'.= h g N.kX8X/.8.=.*.*.e.r.] M t ; t.3X$X1X+.:.%.U.bXjX1X1X1XtXtXtXyXeXSXGXVXhXmXmXSX=X`.yX*XOXaX0XFXFXZXM.. o . @XIXIX",
"IXIX'.= p 2 N.kX8X,XV.V.V.e.7.9.4.3.....F.gXuX*Xq.i.q.M.`.W.W.W.Y.Y.W.2X2XSXmXmXVXVXmXmXmXmXhXhX4XP.Y.W.j.j.d.5.[ [ [ zXIXIX",
"IXIX'.= p : N.kX7XbX,XlXvXL.7.=.0.fX&X%X X X}.=XS.S.S.k.n.n.z.x.v.v.Y.mXhXhXmXmXVXVXmXmXmXGXmXVX].v.z.D.y 1 O [ IXIXPXIXIXIX",
"IXIX'.= n 2 b.pXE.8XiXvXiXV.%.8.4.fX.XR. X X;X=Xc.g.v.z.n.c.x.h.s.s.].GXmXmXGXVXVXVXmXmXSXSXmXGX].g.c.n.x x > [ IXHXPXPXIXIX",
"IXIX'.= w O b.HXoXcXkX>XMXC.<.1.y.uX X&X&X|.uX2Xn.c.c.c.n.n.z.h.s.s.].VXVXVXVXVX4X4XVXVXmXSXhXSX+Xa.k.B.x a = [ IXIXPXIXIXIX",
"IXIXzX3X'. X[ Z F S D S F n S b n Z M Z ` u.4.y.*X^.(.^.!.}.+Xc.h.K.x.J.J.J.J.K.l.K.K.K.K.v.A.S.`.*X).$XS a = ~ BXBXIXLXIXIX",
"IXIXDXBXIXIX[ > h 0 p 0 q q h p a x 3 + H r.=.r.kXoXoXpX9XtX2Xn.z.g.v.g.g.v.l.s.s.s.s.s.s.s.c.a.I.9X#XkXD > * | LXBXLXIXIXIX",
"IXIXIXIXBXDXY . , , , 3 # # , + , s d k Q e.*.e.lX,X,XvXxXOX}.B.P.c.P.Y.D.D.z.h.h.h.x.J.l.h.J.k.I.1X<XkXn w 3 #.BXzXCXIXIXIX",
"IXIXIXIXDXIXt.~ X.| ~ Y Y Y [ [ ~ , 0 5 %.*.7.e.,X,XvXiX6X0X;X#.#.a.{ { { { ;.$.;.w.k.a.w.w.k.i.I.0XjX0XZ q 3 | IXIXIXnXIXIX",
"IXIXIXIXIXIXzXBXDXDXIXDXIXIXPXPXgXs d 8 Q e.7.7.qX6XwXwXjX0X).* 9 a * d a < 9 < $ Z 2.:.1.:.4.:.C.:X:XOXl 3 # X.IXPXIXPXIXIX",
"IXIXIXIXIXBXDXIXDXzXIXCXNXHXHXHXgX* 6 8 H r.=.=.xXjX{.9XXX1XuX= h p 0 l h 3 f d a R 0.8.9.*.0.%.C.sX9XaXK q q ..IXnXnXIXIXIX",
"IXIXIXIXIXIXIXIXIXKXIXIXIXIXPXHX}.x X o ] 3.0.r.>XcX>XZXaXnX^.a * w d = 6 o X X 3 F :.r.9.0.0.4.H.0X1XuXf # * ~ PXIXIXIXIXIX",
"IXIXIXIXIXIXPXCXIXIXKXPXNXPXHXHXLX(.W.@X[ k C C D D K D F Z E (.;XR.R.'.R.[.Q.Q.(.5.S b C C D p S R S Z !..X'.'.IXnXIXBXIXIX",
"IXIXIXIXIXIXIXIXIXIXIXIXIXIXIXIXIXIXIXIX6.O p h h 0 l w s a w IXDXIXIXIXIXIXBXBXIXp.1 p p p h s p a w w zXDXIXIXIXIXIXCXIXIX",
"IXIXIXIXIXIXIXIXIXIXIXIXIXIXIXIXIXIXIXIX[ O w , , = 3 = * * a IXIXCXzXCXIXIXIXIXIXj.O * , , , , , = = * zXNXIXIXIXIXIXIXIXIX",
"IXIXIXIXIXIXIXIXIXIXIXIXIXIXIXIXIXIXIXIXp.U ~ U ~ U ~ ~ U U ~ CXIXIXCXIXIXIXIXCXCXF.E ~ ~ ~ ~ ~ ~ ~ E E CXIXIXIXIXIXIXIXIXIX"
};
