/* XPM */
static char *tree1675630384[] = {
/* columns rows colors chars-per-pixel */
"62 62 16 1 ",
"  c black",
". c #302820",
"X c #284000",
"o c #504040",
"O c #286820",
"+ c #108050",
"@ c #308868",
"# c #589880",
"$ c #689848",
"% c #80A898",
"& c #88C868",
"* c white",
"= c None",
"- c black",
"; c black",
": c black",
/* pixels */
"######@#OO$$O$&$X&$O$$OO######@#######@#OO$$O$&$X&$O$$OO######",
"###@##O&&&OO$$OX&O&$OO&&&O##@######@##O&&&OO$$OX&O&$OO&&&O##@#",
"#@###%+O&&&OO$O&$O$OO&&&O+@@#%@##@###%+O&&&OO$O&$O$OO&&&O+@@#%",
"###@++OOO&&O$XO&$OX$O&&OOO+@@@#####@++OOO&&O$XO&$OX$O&&OOO+@@@",
"#@+++O$$OOO$&&$XX$&&$OOO$$O+O@@##@+++O$$OOO$&&$XX$&&$OOO$$O+O@",
"%+++O$&&&$O&&&XOOX&&&O$&&&$O+++@%+++O$&&&$O&&&XOOX&&&O$&&&$O++",
"#+++X$$&&O&&&$O&&$O&&&O&&$$X+O+@#+++X$$&&O&&&$O&&$O&&&O&&$$X+O",
"@++X&XX$OO$$OO&&&&OOOXOO$XX$X++@@++X&XX$OO$$OO&&&&OOOXOO$XX$X+",
"@+X$$$XX$$OOO$O&&O$OO$$$XX$$$XO+@+X$$$XX$$OOO$O&&O$OO$$$XX$$$X",
"++XOOOX$&&O$$OOOOOO$$O&&$XOOOX++++XOOOX$&&O$$OOOOOO$$O&&$XOOOX",
"@+O$$X$&&&X&&XO$$OX&&X&&&$X$$O++@+O$$X$&&&X&&XO$$OX&&X&&&$X$$O",
"#O$$$XX&&X&&&X$&&$X&&&X&&XX$$$O+#O$$$XX&&X&&&X$&&$X&&&X&&XX$$$",
"#X$$XOOXXX&&X&&&&&&X&&XXXOOX$$X##X$$XOOXXX&&X&&&&&&X&&XXXOOX$$",
"%@XX$$OOOOXXOX&&&&XOXXOOOO$$XX@#%@XX$$OOOOXXOX&&&&XOXXOOOO$$XX",
"#X$X$$OOOOOOOOX&&XOOOOOOOO$$X$X##X$X$$OOOOOOOOX&&XOOOOOOOO$$X$",
"X$$X$O$$$XO$OOOXXOOO$OX$$$O$X$$XX$$X$O$$$XO$OOOXXOOO$OX$$$O$X$",
"X$OXX$$$X$$$$OXOOXO$$$$X$$$XXO$XX$OXX$$$X$$$$OXOOXO$$$$X$$$XXO",
"#XX$OXXXX$$$OXOOOOXO$$$XXXXO$XX@#XX$OXXXX$$$OXOOOOXO$$$XXXXO$X",
"@+X$OOOOXX$$OXO$$OXO$$XXOOOO$X+@@+X$OOOOXX$$OXO$$OXO$$XXOOOO$X",
"@+X$$OOXXXXXXO$$$$OXXXXXXOO$$X+@@+X$$OOXXXXXXO$$$$OXXXXXXOO$$X",
"@++XXOXXOOOXOXX$$XXOXOOOXXOXX++#@++XXOXXOOOXOXX$$XXOXOOOXXOXX+",
"%+++XOXOOOXOOXOXXOXOOXOOOOXX++@#%+++XOXOOOXOOXOXXOXOOXOOOOXX++",
"#+%++XOOOXOOXXOOOOXXOOXOO$X+++###+%++XOOOXOOXXOOOOXXOOXOO$X+++",
"@++++XOOXOOOXOOOOOOXOOOXOXX+++@#@++++XOOXOOOXOOOOOOXOOOXOXX+++",
"@++++OXXXXOOXOOOOOOXOOXXXXO++++@@++++OXXXXOOXOOOOOOXOOXXXXO+++",
"+++O++OXXXXXOOOXXOOOOOXXXO++O+O++++O++OXXXXXOOOXXOOOOOXXXO++O+",
"@++++OXXXXXX.XOXoOX.XXXXXXO++++@@++++OXXXXXX.XOXoOX.XXXXXXO+++",
"#++O+OXXXXX..oooooo.XXXXXXO+O++##++O+OXXXXX..oooooo.XXXXXXO+O+",
"#@+++OXXXXXX.oooooo.XXXXXXO+++@##@+++OXXXXXX.oooooo.XXXXXXO+++",
"%#@+++OXXXXXOOOooOOOXXXXXO+++@##%#@+++OXXXXXOOOooOOOXXXXXO+++@",
"##%#@++OOXXO&&$OO$&&OXXOO++@######%#@++OOXXO&&$OO$&&OXXOO++@##",
"##+#+#@++OOOO&&$O&&OOOO++@##+#+###+#+#@++OOOO&&$O&&OOOO++@##+#",
"######@#OO$$O$&$X&$O$$OO######@#######@#OO$$O$&$X&$O$$OO######",
"###@##O&&&OO$$OX&O&$OO&&&O##@######@##O&&&OO$$OX&O&$OO&&&O##@#",
"#@###%+O&&&OO$O&$O$OO&&&O+@@#%@##@###%+O&&&OO$O&$O$OO&&&O+@@#%",
"###@++OOO&&O$XO&$OX$O&&OOO+@@@#####@++OOO&&O$XO&$OX$O&&OOO+@@@",
"#@+++O$$OOO$&&$XX$&&$OOO$$O+O@@##@+++O$$OOO$&&$XX$&&$OOO$$O+O@",
"%+++O$&&&$O&&&XOOX&&&O$&&&$O+++@%+++O$&&&$O&&&XOOX&&&O$&&&$O++",
"#+++X$$&&O&&&$O&&$O&&&O&&$$X+O+@#+++X$$&&O&&&$O&&$O&&&O&&$$X+O",
"@++X&XX$OO$$OO&&&&OOOXOO$XX$X++@@++X&XX$OO$$OO&&&&OOOXOO$XX$X+",
"@+X$$$XX$$OOO$O&&O$OO$$$XX$$$XO+@+X$$$XX$$OOO$O&&O$OO$$$XX$$$X",
"++XOOOX$&&O$$OOOOOO$$O&&$XOOOX++++XOOOX$&&O$$OOOOOO$$O&&$XOOOX",
"@+O$$X$&&&X&&XO$$OX&&X&&&$X$$O++@+O$$X$&&&X&&XO$$OX&&X&&&$X$$O",
"#O$$$XX&&X&&&X$&&$X&&&X&&XX$$$O+#O$$$XX&&X&&&X$&&$X&&&X&&XX$$$",
"#X$$XOOXXX&&X&&&&&&X&&XXXOOX$$X##X$$XOOXXX&&X&&&&&&X&&XXXOOX$$",
"%@XX$$OOOOXXOX&&&&XOXXOOOO$$XX@#%@XX$$OOOOXXOX&&&&XOXXOOOO$$XX",
"#X$X$$OOOOOOOOX&&XOOOOOOOO$$X$X##X$X$$OOOOOOOOX&&XOOOOOOOO$$X$",
"X$$X$O$$$XO$OOOXXOOO$OX$$$O$X$$XX$$X$O$$$XO$OOOXXOOO$OX$$$O$X$",
"X$OXX$$$X$$$$OXOOXO$$$$X$$$XXO$XX$OXX$$$X$$$$OXOOXO$$$$X$$$XXO",
"#XX$OXXXX$$$OXOOOOXO$$$XXXXO$XX@#XX$OXXXX$$$OXOOOOXO$$$XXXXO$X",
"@+X$OOOOXX$$OXO$$OXO$$XXOOOO$X+@@+X$OOOOXX$$OXO$$OXO$$XXOOOO$X",
"@+X$$OOXXXXXXO$$$$OXXXXXXOO$$X+@@+X$$OOXXXXXXO$$$$OXXXXXXOO$$X",
"@++XXOXXOOOXOXX$$XXOXOOOXXOXX++#@++XXOXXOOOXOXX$$XXOXOOOXXOXX+",
"%+++XOXOOOXOOXOXXOXOOXOOOOXX++@#%+++XOXOOOXOOXOXXOXOOXOOOOXX++",
"#+%++XOOOXOOXXOOOOXXOOXOO$X+++###+%++XOOOXOOXXOOOOXXOOXOO$X+++",
"@++++XOOXOOOXOOOOOOXOOOXOXX+++@#@++++XOOXOOOXOOOOOOXOOOXOXX+++",
"@++++OXXXXOOXOOOOOOXOOXXXXO++++@@++++OXXXXOOXOOOOOOXOOXXXXO+++",
"+++O++OXXXXXOOOXXOOOOOXXXO++O+O++++O++OXXXXXOOOXXOOOOOXXXO++O+",
"@++++OXXXXXX.XOXoOX.XXXXXXO++++@@++++OXXXXXX.XOXoOX.XXXXXXO+++",
"#++O+OXXXXX..oooooo.XXXXXXO+O++##++O+OXXXXX..oooooo.XXXXXXO+O+",
"#@+++OXXXXXX.oooooo.XXXXXXO+++@##@+++OXXXXXX.oooooo.XXXXXXO+++",
"%#@+++OXXXXXOOOooOOOXXXXXO+++@##%#@+++OXXXXXOOOooOOOXXXXXO+++@"
};
