/* XPM */
static char *_c36481e7af74dabecb3388878e7a0c3XfDNsZ3sRV55BbvP[] = {
/* columns rows colors chars-per-pixel */
"62 62 6 1 ",
"  c None",
". c #383C3D",
"X c #253644",
"o c #4B4B4D",
"O c #73787B",
"+ c #A5AAAE",
/* pixels */
"                                                              ",
" +++++++++++++++++++++++++++++++++++++++++++++++++++++++++++++",
" ooooooooooooooooooooooooooooooooooooooooooooooooooooooooooooo",
"+OOOOOOOOOOOOOOOOOOOOOOOOOOOOOOOOOOOOOOOOOOOOOOOOOOOOOOOOOOOOO",
"oOOOOOOOOOOOOOOOOOOOOOOOOOOOOOOOOOOOOOOOOOOOOOOOOOOOOOOOOOOOOO",
"OOOOOOOOOOOOOOOOOOOOOOOOOOOOOOOOOOOOOOOOOOOOOOOOOOOOOOOOOOOOOO",
"OOOOOOOOOOOOOOOOOOOOOOOOOOOOOOOOOOOOOOOOOOOOOOOOOOOOOOOOOOOOOO",
"OOOOOOOOOOOOOOOOOOOOOOOOOOOOOOOOOOOOOOOOOOOOOOOOOOOOOOOOOOOOOO",
"OOOOOO++++++++++++++++++++++++++++++++++++++++++++++++++OOOOOO",
"OOOOOO+................................................+OOOOOO",
"OOOOOO+................................................+OOOOOO",
"OOOOOO+................................................+OOOOOO",
"OOOOOO+................................................+OOOOOO",
"OOOOOO+................................................+OOOOOO",
"OOOOOO+................................................+OOOOOO",
"OOOOOO+oooooooooooooooooooooooooooooooooooooooooooooooo+OOOOOO",
"OOOOOO+XXXXXXXXXXXXXXXXXXXXXXXXXXXXXXXXXXXXXXXXXXXXXXXX+OOOOOO",
"OOOOOO+XXXXXXXXXXXXXXXXXXXXXXXXXXXXXXXXXXXXXXXXXXXXXXXX+OOOOOO",
"OOOOOO+XXXXXXXXXXXXXXXXXXXXXXXXXXXXXXXXXXXXXXXXXXXXXXXX+OOOOOO",
"OOOOOO+XXXXXXXXXXXXXXXXXXXXXXXXXXXXXXXXXXXXXXXXXXXXXXXX+OOOOOO",
"OOOOOO+XXXXXXXXXXXXXXXXXXXXXXXXXXXXXXXXXXXXXXXXXXXXXXXX+OOOOOO",
"OOOOOO+XXXXXXXXXXXXXXXXXXXXXXXXXXXXXXXXXXXXXXXXXXXXXXXX+OOOOOO",
"OOOOOO+XXXXXXXXXXXXXXXXXXXXXXXXXXXXXXXXXXXXXXXXXXXXXXXX+OOOOOO",
"OOOOOO+XXXXXXXXXXXXXXXXXXXXXXXXXXXXXXXXXXXXXXXXXXXXXXXX+OOOOOO",
"OOOOOO+XXXXXXXXXXXXXXXXXXXXXXXXXXXXXXXXXXXXXXXXXXXXXXXX+OOOOOO",
"OOOOOO+XXXXXXXXXXXXXXXXXXXXXXXXXXXXXXXXXXXXXXXXXXXXXXXX+OOOOOO",
"OOOOOO+XXXXXXXXXXXXXXXXXXXXXXXXXXXXXXXXXXXXXXXXXXXXXXXX+OOOOOO",
"OOOOOO+XXXXXXXXXXXXXXXXXXXXXXXXXXXXXXXXXXXXXXXXXXXXXXXX+OOOOOO",
"OOOOOO+XXXXXXXXXXXXXXXXXXXXXXXXXXXXXXXXXXXXXXXXXXXXXXXX+OOOOOO",
"OOOOOO+XXXXXXXXXXXXXXXXXXXXXXXXXXXXXXXXXXXXXXXXXXXXXXXX+OOOOOO",
"OOOOOO+XXXXXXXXXXXXXXXXXXXXXXXXXXXXXXXXXXXXXXXXXXXXXXXX+OOOOOO",
"OOOOOO+XXXXXXXXXXXXXXXXXXXXXXXXXXXXXXXXXXXXXXXXXXXXXXXX+OOOOOO",
"OOOOOO+XXXXXXXXXXXXXXXXXXXXXXXXXXXXXXXXXXXXXXXXXXXXXXXX+OOOOOO",
"OOOOOO+XXXXXXXXXXXXXXXXXXXXXXXXXXXXXXXXXXXXXXXXXXXXXXXX+OOOOOO",
"OOOOOO+XXXXXXXXXXXXXXXXXXXXXXXXXXXXXXXXXXXXXXXXXXXXXXXX+OOOOOO",
"OOOOOO+XXXXXXXXXXXXXXXXXXXXXXXXXXXXXXXXXXXXXXXXXXXXXXXX+OOOOOO",
"OOOOOO+XXXXXXXXXXXXXXXXXXXXXXXXXXXXXXXXXXXXXXXXXXXXXXXX+OOOOOO",
"OOOOOO+XXXXXXXXXXXXXXXXXXXXXXXXXXXXXXXXXXXXXXXXXXXXXXXX+OOOOOO",
"OOOOOO+XXXXXXXXXXXXXXXXXXXXXXXXXXXXXXXXXXXXXXXXXXXXXXXX+OOOOOO",
"OOOOOO+XXXXXXXXXXXXXXXXXXXXXXXXXXXXXXXXXXXXXXXXXXXXXXXX+OOOOOO",
"OOOOOO+XXXXXXXXXXXXXXXXXXXXXXXXXXXXXXXXXXXXXXXXXXXXXXXX+OOOOOO",
"OOOOOO+XXXXXXXXXXXXXXXXXXXXXXXXXXXXXXXXXXXXXXXXXXXXXXXX+OOOOOO",
"OOOOOO+XXXXXXXXXXXXXXXXXXXXXXXXXXXXXXXXXXXXXXXXXXXXXXXX+OOOOOO",
"OOOOOO+XXXXXXXXXXXXXXXXXXXXXXXXXXXXXXXXXXXXXXXXXXXXXXXX+OOOOOO",
"OOOOOO+XXXXXXXXXXXXXXXXXXXXXXXXXXXXXXXXXXXXXXXXXXXXXXXX+OOOOOO",
"OOOOOO+XXXXXXXXXXXXXXXXXXXXXXXXXXXXXXXXXXXXXXXXXXXXXXXX+OOOOOO",
"OOOOOO+XXXXXXXXXXXXXXXXXXXXXXXXXXXXXXXXXXXXXXXXXXXXXXXX+OOOOOO",
"OOOOOO+XXXXXXXXXXXXXXXXXXXXXXXXXXXXXXXXXXXXXXXXXXXXXXXX+OOOOOO",
"OOOOOO+XXXXXXXXXXXXXXXXXXXXXXXXXXXXXXXXXXXXXXXXXXXXXXXX+OOOOOO",
"OOOOOO+XXXXXXXXXXXXXXXXXXXXXXXXXXXXXXXXXXXXXXXXXXXXXXXX+OOOOOO",
"OOOOOO++++++++++++++++++++++++++++++++++++++++++++++++++OOOOOO",
"OOOOOOooooooooooooooooooooooooooooooooooooooooooooooooooOOOOOO",
"OOOOOOOOOOOOOOOOOOOOOOOOOOOOOOOOOOOOOOOOOOOOOOOOOOOOOOOOOOOOOO",
"OOOOOOOOOOOOOOOOOOOOOOOOOOOOOOOOOOOOOOOOOOOOOOOOOOOOOOOOOOOOOO",
"OOOOOOOOOOOOOOOOOOOOOOOOOOOOOOOOOOOOOOOOOOOOOOOOOOOOOOOOOOOOOO",
"OOOOOOOOOOOOOOOOOOOOOOOOOOOOOOOOOOOOOOOOOOOOOOOOOOOOOOOOOOOOOO",
"OOOOOOOOOOOOOOOOOOOOOOOOOOOOOOOOOOOOOOOOOOOOOOOOOOOOOOOOOOOOOO",
"O+++++++++++++++++++++++++++++++++++++++++++++++++++++++++++++",
"O.............................................................",
"+.............................................................",
"..............................................................",
".............................................................."
};
